# MagicaVoxel @ Ephtracy

# group
o 

# material
mtllib floor.mtl
usemtl palette

# normals
vn -1 0 0
vn 1 0 0
vn 0 0 1
vn 0 0 -1
vn 0 -1 0
vn 0 1 0

# texcoords
vt 0.306641 0.5
vt 0.544922 0.5
vt 0.556641 0.5
vt 0.958984 0.5
vt 0.978516 0.5

# verts
v -1.7 0.3 0.9
v -1.7 0.3 -0.5
v -1.7 0.3 -0.6
v -1.7 0.4 -0.5
v -1.7 0.4 -0.6
v -1.7 0.4 -0.7
v -1.7 0.6 0.9
v -1.7 0.6 -0.7
v -1.7 0.6 -0.8
v -1.7 0.7 0.9
v -1.7 0.7 -0.8
v -1.6 0.5 -0.7
v -1.6 0.5 -0.8
v -1.6 0.6 -0.7
v -1.6 0.6 -0.8
v -1.4 0.3 -0.6
v -1.4 0.3 -0.7
v -1.4 0.4 -0.6
v -1.4 0.4 -0.7
v -1.4 0.5 -0.7
v -1.4 0.5 -0.8
v -1.4 0.6 -0.7
v -1.4 0.6 -0.8
v -1.3 0.3 -0.7
v -1.3 0.3 -0.8
v -1.3 0.4 -0.7
v -1.3 0.5 -0.7
v -1.3 0.5 -0.8
v -0.9 0.3 -0.6
v -0.9 0.3 -0.7
v -0.9 0.4 -0.6
v -0.9 0.4 -0.7
v -0.9 0.4 -0.8
v -0.9 0.6 -0.7
v -0.9 0.6 -0.8
v -0.8 0.3 -0.7
v -0.8 0.3 -0.8
v -0.8 0.4 -0.7
v -0.8 0.4 -0.8
v -0.5 0.5 -0.7
v -0.5 0.5 -0.8
v -0.5 0.6 -0.7
v -0.5 0.6 -0.8
v -0.4 0.3 -0.6
v -0.4 0.3 -0.7
v -0.4 0.4 -0.6
v -0.4 0.4 -0.7
v -0.4 0.4 -0.8
v -0.4 0.5 -0.7
v -0.4 0.5 -0.8
v -0.3 0.3 -0.7
v -0.3 0.3 -0.8
v -0.3 0.4 -0.7
v -0.3 0.4 -0.8
v 0.2 0.4 -0.7
v 0.2 0.4 -0.8
v 0.2 0.6 -0.7
v 0.2 0.6 -0.8
v 0.5 0.5 -0.7
v 0.5 0.5 -0.8
v 0.5 0.6 -0.7
v 0.5 0.6 -0.8
v 0.7 0.4 -0.7
v 0.7 0.4 -0.8
v 0.7 0.5 -0.7
v 0.7 0.5 -0.8
v 1 0.3 -0.6
v 1 0.3 -0.7
v 1 0.4 -0.6
v 1 0.4 -0.7
v 1 0.5 -0.7
v 1 0.5 -0.8
v 1 0.6 -0.7
v 1 0.6 -0.8
v 1.1 0.3 -0.7
v 1.1 0.3 -0.8
v 1.1 0.4 -0.7
v 1.1 0.5 -0.7
v 1.1 0.5 -0.8
v 1.5 0.5 -0.7
v 1.5 0.5 -0.8
v 1.5 0.6 -0.7
v 1.5 0.6 -0.8
v 1.6 0.4 -0.7
v 1.6 0.4 -0.8
v 1.6 0.5 -0.7
v 1.6 0.5 -0.8
v -1.5 0.5 -0.7
v -1.5 0.5 -0.8
v -1.5 0.6 -0.7
v -1.5 0.6 -0.8
v -1.2 0.3 -0.7
v -1.2 0.3 -0.8
v -1.2 0.4 -0.7
v -1.2 0.4 -0.8
v -1.1 0.3 -0.6
v -1.1 0.3 -0.7
v -1.1 0.4 -0.6
v -1.1 0.4 -0.7
v -1.1 0.4 -0.8
v -1.1 0.5 -0.7
v -1.1 0.5 -0.8
v -1 0.5 -0.7
v -1 0.5 -0.8
v -1 0.6 -0.7
v -1 0.6 -0.8
v -0.7 0.3 -0.7
v -0.7 0.3 -0.8
v -0.7 0.4 -0.7
v -0.7 0.5 -0.7
v -0.7 0.5 -0.8
v -0.6 0.3 -0.6
v -0.6 0.3 -0.7
v -0.6 0.4 -0.6
v -0.6 0.4 -0.7
v -0.6 0.5 -0.7
v -0.6 0.5 -0.8
v -0.6 0.6 -0.7
v -0.6 0.6 -0.8
v -0.1 0.3 -0.7
v -0.1 0.3 -0.8
v -0.1 0.4 -0.7
v -0.1 0.5 -0.7
v -0.1 0.5 -0.8
v 0 0.3 -0.6
v 0 0.3 -0.7
v 0 0.4 -0.6
v 0 0.4 -0.7
v 0 0.5 -0.7
v 0 0.5 -0.8
v 0 0.6 -0.7
v 0 0.6 -0.8
v 0.3 0.4 -0.7
v 0.3 0.4 -0.8
v 0.3 0.5 -0.7
v 0.3 0.5 -0.8
v 0.4 0.5 -0.7
v 0.4 0.5 -0.8
v 0.4 0.6 -0.7
v 0.4 0.6 -0.8
v 0.8 0.4 -0.7
v 0.8 0.4 -0.8
v 0.8 0.5 -0.7
v 0.8 0.5 -0.8
v 0.9 0.5 -0.7
v 0.9 0.5 -0.8
v 0.9 0.6 -0.7
v 0.9 0.6 -0.8
v 1.2 0.3 -0.7
v 1.2 0.3 -0.8
v 1.2 0.4 -0.7
v 1.2 0.4 -0.8
v 1.3 0.3 -0.6
v 1.3 0.3 -0.7
v 1.3 0.4 -0.6
v 1.3 0.4 -0.7
v 1.4 0.4 -0.7
v 1.4 0.4 -0.8
v 1.4 0.6 -0.7
v 1.4 0.6 -0.8
v 1.7 0.4 -0.7
v 1.7 0.4 -0.8
v 1.7 0.5 -0.7
v 1.7 0.5 -0.8
v 1.8 0.5 -0.7
v 1.8 0.5 -0.8
v 1.8 0.6 -0.7
v 1.8 0.6 -0.8
v 1.9 0.3 0.9
v 1.9 0.3 -0.5
v 1.9 0.3 -0.6
v 1.9 0.4 -0.5
v 1.9 0.4 -0.6
v 1.9 0.4 -0.7
v 1.9 0.6 0.9
v 1.9 0.6 -0.7
v 1.9 0.6 -0.8
v 1.9 0.7 0.9
v 1.9 0.7 -0.8
v -1.7 0.3 0.9
v -1.7 0.6 0.9
v -1.7 0.7 0.9
v 1.9 0.3 0.9
v 1.9 0.6 0.9
v 1.9 0.7 0.9
v -1.7 0.3 -0.6
v -1.7 0.4 -0.6
v -1.4 0.3 -0.6
v -1.4 0.4 -0.6
v -1.1 0.3 -0.6
v -1.1 0.4 -0.6
v -0.9 0.3 -0.6
v -0.9 0.4 -0.6
v -0.6 0.3 -0.6
v -0.6 0.4 -0.6
v -0.4 0.3 -0.6
v -0.4 0.4 -0.6
v 0 0.3 -0.6
v 0 0.4 -0.6
v 1 0.3 -0.6
v 1 0.4 -0.6
v 1.3 0.3 -0.6
v 1.3 0.4 -0.6
v 1.9 0.3 -0.6
v 1.9 0.4 -0.6
v -1.7 0.4 -0.7
v -1.7 0.6 -0.7
v -1.6 0.5 -0.7
v -1.6 0.6 -0.7
v -1.5 0.5 -0.7
v -1.5 0.6 -0.7
v -1.4 0.3 -0.7
v -1.4 0.4 -0.7
v -1.4 0.5 -0.7
v -1.4 0.6 -0.7
v -1.3 0.3 -0.7
v -1.3 0.4 -0.7
v -1.3 0.5 -0.7
v -1.2 0.3 -0.7
v -1.2 0.4 -0.7
v -1.1 0.3 -0.7
v -1.1 0.4 -0.7
v -1.1 0.5 -0.7
v -1 0.5 -0.7
v -1 0.6 -0.7
v -0.9 0.3 -0.7
v -0.9 0.4 -0.7
v -0.9 0.6 -0.7
v -0.8 0.3 -0.7
v -0.8 0.4 -0.7
v -0.7 0.3 -0.7
v -0.7 0.4 -0.7
v -0.7 0.5 -0.7
v -0.6 0.3 -0.7
v -0.6 0.4 -0.7
v -0.6 0.5 -0.7
v -0.6 0.6 -0.7
v -0.5 0.5 -0.7
v -0.5 0.6 -0.7
v -0.4 0.3 -0.7
v -0.4 0.4 -0.7
v -0.4 0.5 -0.7
v -0.3 0.3 -0.7
v -0.3 0.4 -0.7
v -0.1 0.3 -0.7
v -0.1 0.4 -0.7
v -0.1 0.5 -0.7
v 0 0.3 -0.7
v 0 0.4 -0.7
v 0 0.5 -0.7
v 0 0.6 -0.7
v 0.2 0.4 -0.7
v 0.2 0.6 -0.7
v 0.3 0.4 -0.7
v 0.3 0.5 -0.7
v 0.4 0.5 -0.7
v 0.4 0.6 -0.7
v 0.5 0.5 -0.7
v 0.5 0.6 -0.7
v 0.7 0.4 -0.7
v 0.7 0.5 -0.7
v 0.8 0.4 -0.7
v 0.8 0.5 -0.7
v 0.9 0.5 -0.7
v 0.9 0.6 -0.7
v 1 0.3 -0.7
v 1 0.4 -0.7
v 1 0.5 -0.7
v 1 0.6 -0.7
v 1.1 0.3 -0.7
v 1.1 0.4 -0.7
v 1.1 0.5 -0.7
v 1.2 0.3 -0.7
v 1.2 0.4 -0.7
v 1.3 0.3 -0.7
v 1.3 0.4 -0.7
v 1.4 0.4 -0.7
v 1.4 0.6 -0.7
v 1.5 0.5 -0.7
v 1.5 0.6 -0.7
v 1.6 0.4 -0.7
v 1.6 0.5 -0.7
v 1.7 0.4 -0.7
v 1.7 0.5 -0.7
v 1.8 0.5 -0.7
v 1.8 0.6 -0.7
v 1.9 0.4 -0.7
v 1.9 0.6 -0.7
v -1.7 0.6 -0.8
v -1.7 0.7 -0.8
v -1.6 0.5 -0.8
v -1.6 0.6 -0.8
v -1.5 0.5 -0.8
v -1.5 0.6 -0.8
v -1.4 0.5 -0.8
v -1.4 0.6 -0.8
v -1.3 0.3 -0.8
v -1.3 0.5 -0.8
v -1.2 0.3 -0.8
v -1.2 0.4 -0.8
v -1.1 0.4 -0.8
v -1.1 0.5 -0.8
v -1 0.5 -0.8
v -1 0.6 -0.8
v -0.9 0.4 -0.8
v -0.9 0.6 -0.8
v -0.8 0.3 -0.8
v -0.8 0.4 -0.8
v -0.7 0.3 -0.8
v -0.7 0.5 -0.8
v -0.6 0.5 -0.8
v -0.6 0.6 -0.8
v -0.5 0.5 -0.8
v -0.5 0.6 -0.8
v -0.4 0.4 -0.8
v -0.4 0.5 -0.8
v -0.3 0.3 -0.8
v -0.3 0.4 -0.8
v -0.1 0.3 -0.8
v -0.1 0.5 -0.8
v 0 0.5 -0.8
v 0 0.6 -0.8
v 0.2 0.4 -0.8
v 0.2 0.6 -0.8
v 0.3 0.4 -0.8
v 0.3 0.5 -0.8
v 0.4 0.5 -0.8
v 0.4 0.6 -0.8
v 0.5 0.5 -0.8
v 0.5 0.6 -0.8
v 0.7 0.4 -0.8
v 0.7 0.5 -0.8
v 0.8 0.4 -0.8
v 0.8 0.5 -0.8
v 0.9 0.5 -0.8
v 0.9 0.6 -0.8
v 1 0.5 -0.8
v 1 0.6 -0.8
v 1.1 0.3 -0.8
v 1.1 0.5 -0.8
v 1.2 0.3 -0.8
v 1.2 0.4 -0.8
v 1.4 0.4 -0.8
v 1.4 0.6 -0.8
v 1.5 0.5 -0.8
v 1.5 0.6 -0.8
v 1.6 0.4 -0.8
v 1.6 0.5 -0.8
v 1.7 0.4 -0.8
v 1.7 0.5 -0.8
v 1.8 0.5 -0.8
v 1.8 0.6 -0.8
v 1.9 0.6 -0.8
v 1.9 0.7 -0.8
v -1.7 0.3 0.9
v 1.9 0.3 0.9
v -1.7 0.3 -0.5
v 1.9 0.3 -0.5
v -1.7 0.3 -0.6
v -1.4 0.3 -0.6
v -1.1 0.3 -0.6
v -0.9 0.3 -0.6
v -0.6 0.3 -0.6
v -0.4 0.3 -0.6
v 0 0.3 -0.6
v 1 0.3 -0.6
v 1.3 0.3 -0.6
v 1.9 0.3 -0.6
v -1.4 0.3 -0.7
v -1.3 0.3 -0.7
v -1.2 0.3 -0.7
v -1.1 0.3 -0.7
v -0.9 0.3 -0.7
v -0.8 0.3 -0.7
v -0.7 0.3 -0.7
v -0.6 0.3 -0.7
v -0.4 0.3 -0.7
v -0.3 0.3 -0.7
v -0.1 0.3 -0.7
v 0 0.3 -0.7
v 1 0.3 -0.7
v 1.1 0.3 -0.7
v 1.2 0.3 -0.7
v 1.3 0.3 -0.7
v -1.3 0.3 -0.8
v -1.2 0.3 -0.8
v -0.8 0.3 -0.8
v -0.7 0.3 -0.8
v -0.3 0.3 -0.8
v -0.1 0.3 -0.8
v 1.1 0.3 -0.8
v 1.2 0.3 -0.8
v -1.7 0.4 -0.6
v -1.4 0.4 -0.6
v -1.1 0.4 -0.6
v -0.9 0.4 -0.6
v -0.6 0.4 -0.6
v -0.4 0.4 -0.6
v 0 0.4 -0.6
v 1 0.4 -0.6
v 1.3 0.4 -0.6
v 1.9 0.4 -0.6
v -1.7 0.4 -0.7
v -1.4 0.4 -0.7
v -1.2 0.4 -0.7
v -1.1 0.4 -0.7
v -0.9 0.4 -0.7
v -0.8 0.4 -0.7
v -0.6 0.4 -0.7
v -0.4 0.4 -0.7
v -0.3 0.4 -0.7
v 0 0.4 -0.7
v 0.2 0.4 -0.7
v 0.3 0.4 -0.7
v 0.7 0.4 -0.7
v 0.8 0.4 -0.7
v 1 0.4 -0.7
v 1.2 0.4 -0.7
v 1.3 0.4 -0.7
v 1.4 0.4 -0.7
v 1.6 0.4 -0.7
v 1.7 0.4 -0.7
v 1.9 0.4 -0.7
v -1.2 0.4 -0.8
v -1.1 0.4 -0.8
v -0.9 0.4 -0.8
v -0.8 0.4 -0.8
v -0.4 0.4 -0.8
v -0.3 0.4 -0.8
v 0.2 0.4 -0.8
v 0.3 0.4 -0.8
v 0.7 0.4 -0.8
v 0.8 0.4 -0.8
v 1.2 0.4 -0.8
v 1.4 0.4 -0.8
v 1.6 0.4 -0.8
v 1.7 0.4 -0.8
v -1.6 0.5 -0.7
v -1.5 0.5 -0.7
v -1.4 0.5 -0.7
v -1.3 0.5 -0.7
v -1.1 0.5 -0.7
v -1 0.5 -0.7
v -0.7 0.5 -0.7
v -0.6 0.5 -0.7
v -0.5 0.5 -0.7
v -0.4 0.5 -0.7
v -0.1 0.5 -0.7
v 0 0.5 -0.7
v 0.3 0.5 -0.7
v 0.4 0.5 -0.7
v 0.5 0.5 -0.7
v 0.7 0.5 -0.7
v 0.8 0.5 -0.7
v 0.9 0.5 -0.7
v 1 0.5 -0.7
v 1.1 0.5 -0.7
v 1.5 0.5 -0.7
v 1.6 0.5 -0.7
v 1.7 0.5 -0.7
v 1.8 0.5 -0.7
v -1.6 0.5 -0.8
v -1.5 0.5 -0.8
v -1.4 0.5 -0.8
v -1.3 0.5 -0.8
v -1.1 0.5 -0.8
v -1 0.5 -0.8
v -0.7 0.5 -0.8
v -0.6 0.5 -0.8
v -0.5 0.5 -0.8
v -0.4 0.5 -0.8
v -0.1 0.5 -0.8
v 0 0.5 -0.8
v 0.3 0.5 -0.8
v 0.4 0.5 -0.8
v 0.5 0.5 -0.8
v 0.7 0.5 -0.8
v 0.8 0.5 -0.8
v 0.9 0.5 -0.8
v 1 0.5 -0.8
v 1.1 0.5 -0.8
v 1.5 0.5 -0.8
v 1.6 0.5 -0.8
v 1.7 0.5 -0.8
v 1.8 0.5 -0.8
v -1.7 0.6 -0.7
v -1.6 0.6 -0.7
v -1.5 0.6 -0.7
v -1.4 0.6 -0.7
v -1 0.6 -0.7
v -0.9 0.6 -0.7
v -0.6 0.6 -0.7
v -0.5 0.6 -0.7
v 0 0.6 -0.7
v 0.2 0.6 -0.7
v 0.4 0.6 -0.7
v 0.5 0.6 -0.7
v 0.9 0.6 -0.7
v 1 0.6 -0.7
v 1.4 0.6 -0.7
v 1.5 0.6 -0.7
v 1.8 0.6 -0.7
v 1.9 0.6 -0.7
v -1.7 0.6 -0.8
v -1.6 0.6 -0.8
v -1.5 0.6 -0.8
v -1.4 0.6 -0.8
v -1 0.6 -0.8
v -0.9 0.6 -0.8
v -0.6 0.6 -0.8
v -0.5 0.6 -0.8
v 0 0.6 -0.8
v 0.2 0.6 -0.8
v 0.4 0.6 -0.8
v 0.5 0.6 -0.8
v 0.9 0.6 -0.8
v 1 0.6 -0.8
v 1.4 0.6 -0.8
v 1.5 0.6 -0.8
v 1.8 0.6 -0.8
v 1.9 0.6 -0.8
v -1.7 0.7 0.9
v 1.9 0.7 0.9
v 0 0.7 0.7
v 0.0999999 0.7 0.7
v -0.7 0.7 0.6
v -0.6 0.7 0.6
v 0 0.7 0.6
v 0.0999999 0.7 0.6
v -0.7 0.7 0.5
v -0.6 0.7 0.5
v 0.9 0.7 0.5
v 1 0.7 0.5
v 0.9 0.7 0.4
v 1 0.7 0.4
v 1.5 0.7 0.4
v 1.7 0.7 0.4
v -1.4 0.7 0.3
v -1.3 0.7 0.3
v 0.2 0.7 0.3
v 0.4 0.7 0.3
v -1.4 0.7 0.2
v -1.3 0.7 0.2
v -0.9 0.7 0.2
v -0.7 0.7 0.2
v 1.5 0.7 0.2
v 1.7 0.7 0.2
v 0.2 0.7 0.1
v 0.4 0.7 0.1
v -0.9 0.7 0
v -0.7 0.7 0
v 1.2 0.7 -0.1
v 1.4 0.7 -0.1
v -0.6 0.7 -0.3
v -0.5 0.7 -0.3
v 1.2 0.7 -0.3
v 1.4 0.7 -0.3
v -0.6 0.7 -0.4
v -0.5 0.7 -0.4
v -0.1 0.7 -0.4
v 0.0999999 0.7 -0.4
v -1.4 0.7 -0.5
v -1.3 0.7 -0.5
v 0.8 0.7 -0.5
v 0.9 0.7 -0.5
v -1.4 0.7 -0.6
v -1.3 0.7 -0.6
v -0.1 0.7 -0.6
v 0.0999999 0.7 -0.6
v 0.8 0.7 -0.6
v 0.9 0.7 -0.6
v -1.7 0.7 -0.8
v 1.9 0.7 -0.8

# faces
f 4/5/1 2/5/1 1/5/1
f 4/4/1 3/4/1 2/4/1
f 5/4/1 3/4/1 4/4/1
f 7/5/1 4/5/1 1/5/1
f 7/5/1 6/5/1 5/5/1
f 7/5/1 5/5/1 4/5/1
f 8/5/1 6/5/1 7/5/1
f 10/3/1 8/3/1 7/3/1
f 10/3/1 9/3/1 8/3/1
f 11/3/1 9/3/1 10/3/1
f 14/3/1 13/3/1 12/3/1
f 15/3/1 13/3/1 14/3/1
f 18/4/1 17/4/1 16/4/1
f 19/4/1 17/4/1 18/4/1
f 22/3/1 21/3/1 20/3/1
f 23/3/1 21/3/1 22/3/1
f 26/3/1 25/3/1 24/3/1
f 27/3/1 25/3/1 26/3/1
f 28/3/1 25/3/1 27/3/1
f 31/4/1 30/4/1 29/4/1
f 32/4/1 30/4/1 31/4/1
f 34/3/1 33/3/1 32/3/1
f 35/3/1 33/3/1 34/3/1
f 38/3/1 37/3/1 36/3/1
f 39/3/1 37/3/1 38/3/1
f 42/3/1 41/3/1 40/3/1
f 43/3/1 41/3/1 42/3/1
f 46/4/1 45/4/1 44/4/1
f 47/4/1 45/4/1 46/4/1
f 49/3/1 48/3/1 47/3/1
f 50/3/1 48/3/1 49/3/1
f 53/3/1 52/3/1 51/3/1
f 54/3/1 52/3/1 53/3/1
f 57/3/1 56/3/1 55/3/1
f 58/3/1 56/3/1 57/3/1
f 61/3/1 60/3/1 59/3/1
f 62/3/1 60/3/1 61/3/1
f 65/3/1 64/3/1 63/3/1
f 66/3/1 64/3/1 65/3/1
f 69/4/1 68/4/1 67/4/1
f 70/4/1 68/4/1 69/4/1
f 73/3/1 72/3/1 71/3/1
f 74/3/1 72/3/1 73/3/1
f 77/3/1 76/3/1 75/3/1
f 78/3/1 76/3/1 77/3/1
f 79/3/1 76/3/1 78/3/1
f 82/3/1 81/3/1 80/3/1
f 83/3/1 81/3/1 82/3/1
f 86/3/1 85/3/1 84/3/1
f 87/3/1 85/3/1 86/3/1
f 88/3/2 89/3/2 90/3/2
f 90/3/2 89/3/2 91/3/2
f 92/3/2 93/3/2 94/3/2
f 94/3/2 93/3/2 95/3/2
f 96/4/2 97/4/2 98/4/2
f 98/4/2 97/4/2 99/4/2
f 99/3/2 100/3/2 101/3/2
f 101/3/2 100/3/2 102/3/2
f 103/3/2 104/3/2 105/3/2
f 105/3/2 104/3/2 106/3/2
f 107/3/2 108/3/2 109/3/2
f 109/3/2 108/3/2 110/3/2
f 110/3/2 108/3/2 111/3/2
f 112/4/2 113/4/2 114/4/2
f 114/4/2 113/4/2 115/4/2
f 116/3/2 117/3/2 118/3/2
f 118/3/2 117/3/2 119/3/2
f 120/3/2 121/3/2 122/3/2
f 122/3/2 121/3/2 123/3/2
f 123/3/2 121/3/2 124/3/2
f 125/4/2 126/4/2 127/4/2
f 127/4/2 126/4/2 128/4/2
f 129/3/2 130/3/2 131/3/2
f 131/3/2 130/3/2 132/3/2
f 133/3/2 134/3/2 135/3/2
f 135/3/2 134/3/2 136/3/2
f 137/3/2 138/3/2 139/3/2
f 139/3/2 138/3/2 140/3/2
f 141/3/2 142/3/2 143/3/2
f 143/3/2 142/3/2 144/3/2
f 145/3/2 146/3/2 147/3/2
f 147/3/2 146/3/2 148/3/2
f 149/3/2 150/3/2 151/3/2
f 151/3/2 150/3/2 152/3/2
f 153/4/2 154/4/2 155/4/2
f 155/4/2 154/4/2 156/4/2
f 157/3/2 158/3/2 159/3/2
f 159/3/2 158/3/2 160/3/2
f 161/3/2 162/3/2 163/3/2
f 163/3/2 162/3/2 164/3/2
f 165/3/2 166/3/2 167/3/2
f 167/3/2 166/3/2 168/3/2
f 169/5/2 170/5/2 172/5/2
f 170/4/2 171/4/2 172/4/2
f 172/4/2 171/4/2 173/4/2
f 169/5/2 172/5/2 175/5/2
f 173/5/2 174/5/2 175/5/2
f 172/5/2 173/5/2 175/5/2
f 175/5/2 174/5/2 176/5/2
f 175/3/2 176/3/2 178/3/2
f 176/3/2 177/3/2 178/3/2
f 178/3/2 177/3/2 179/3/2
f 183/5/3 181/5/3 180/5/3
f 184/3/3 182/3/3 181/3/3
f 184/5/3 181/5/3 183/5/3
f 185/3/3 182/3/3 184/3/3
f 186/4/4 187/4/4 188/4/4
f 188/4/4 187/4/4 189/4/4
f 190/4/4 191/4/4 192/4/4
f 192/4/4 191/4/4 193/4/4
f 194/4/4 195/4/4 196/4/4
f 196/4/4 195/4/4 197/4/4
f 198/4/4 199/4/4 200/4/4
f 200/4/4 199/4/4 201/4/4
f 202/4/4 203/4/4 204/4/4
f 204/4/4 203/4/4 205/4/4
f 206/5/4 207/5/4 208/5/4
f 208/5/4 207/5/4 209/5/4
f 206/5/4 208/5/4 210/5/4
f 206/5/4 210/5/4 213/5/4
f 210/5/4 211/5/4 213/5/4
f 213/5/4 211/5/4 214/5/4
f 214/5/4 211/5/4 215/5/4
f 212/4/4 213/4/4 216/4/4
f 213/5/4 214/5/4 217/5/4
f 216/4/4 213/4/4 217/4/4
f 217/5/4 214/5/4 218/5/4
f 219/4/4 220/4/4 221/4/4
f 221/4/4 220/4/4 222/4/4
f 222/5/4 223/5/4 224/5/4
f 222/5/4 224/5/4 227/5/4
f 224/5/4 225/5/4 227/5/4
f 227/5/4 225/5/4 228/5/4
f 226/4/4 227/4/4 229/4/4
f 229/4/4 227/4/4 230/4/4
f 231/4/4 232/4/4 234/4/4
f 232/5/4 233/5/4 235/5/4
f 234/4/4 232/4/4 235/4/4
f 235/5/4 233/5/4 236/5/4
f 236/5/4 237/5/4 238/5/4
f 235/5/4 236/5/4 238/5/4
f 238/5/4 237/5/4 239/5/4
f 235/5/4 238/5/4 241/5/4
f 241/5/4 238/5/4 242/5/4
f 240/4/4 241/4/4 243/4/4
f 243/4/4 241/4/4 244/4/4
f 245/4/4 246/4/4 248/4/4
f 246/5/4 247/5/4 249/5/4
f 248/4/4 246/4/4 249/4/4
f 249/5/4 247/5/4 250/5/4
f 249/5/4 250/5/4 252/5/4
f 250/5/4 251/5/4 252/5/4
f 252/5/4 251/5/4 253/5/4
f 254/5/4 255/5/4 256/5/4
f 254/5/4 256/5/4 258/5/4
f 256/5/4 257/5/4 258/5/4
f 258/5/4 257/5/4 259/5/4
f 254/5/4 258/5/4 260/5/4
f 260/5/4 258/5/4 261/5/4
f 262/5/4 263/5/4 264/5/4
f 262/5/4 264/5/4 267/5/4
f 264/5/4 265/5/4 267/5/4
f 267/5/4 265/5/4 268/5/4
f 268/5/4 265/5/4 269/5/4
f 266/4/4 267/4/4 270/4/4
f 267/5/4 268/5/4 271/5/4
f 270/4/4 267/4/4 271/4/4
f 271/5/4 268/5/4 272/5/4
f 273/4/4 274/4/4 275/4/4
f 275/4/4 274/4/4 276/4/4
f 277/5/4 278/5/4 279/5/4
f 279/5/4 278/5/4 280/5/4
f 277/5/4 279/5/4 281/5/4
f 281/5/4 279/5/4 282/5/4
f 283/5/4 284/5/4 285/5/4
f 283/5/4 285/5/4 287/5/4
f 285/5/4 286/5/4 287/5/4
f 287/5/4 286/5/4 288/5/4
f 289/3/4 290/3/4 292/3/4
f 291/3/4 292/3/4 293/3/4
f 292/3/4 290/3/4 294/3/4
f 293/3/4 292/3/4 294/3/4
f 294/3/4 290/3/4 296/3/4
f 295/3/4 296/3/4 298/3/4
f 297/3/4 298/3/4 299/3/4
f 299/3/4 298/3/4 300/3/4
f 300/3/4 298/3/4 301/3/4
f 298/3/4 296/3/4 302/3/4
f 301/3/4 298/3/4 302/3/4
f 302/3/4 296/3/4 303/3/4
f 296/3/4 290/3/4 304/3/4
f 303/3/4 296/3/4 304/3/4
f 304/3/4 290/3/4 306/3/4
f 305/3/4 306/3/4 308/3/4
f 307/3/4 308/3/4 309/3/4
f 308/3/4 306/3/4 310/3/4
f 309/3/4 308/3/4 310/3/4
f 310/3/4 306/3/4 311/3/4
f 306/3/4 290/3/4 312/3/4
f 311/3/4 306/3/4 312/3/4
f 312/3/4 290/3/4 314/3/4
f 313/3/4 314/3/4 316/3/4
f 315/3/4 316/3/4 318/3/4
f 317/3/4 318/3/4 319/3/4
f 316/3/4 314/3/4 320/3/4
f 319/3/4 318/3/4 320/3/4
f 318/3/4 316/3/4 320/3/4
f 320/3/4 314/3/4 321/3/4
f 314/3/4 290/3/4 322/3/4
f 321/3/4 314/3/4 322/3/4
f 322/3/4 290/3/4 324/3/4
f 323/3/4 324/3/4 325/3/4
f 325/3/4 324/3/4 326/3/4
f 326/3/4 324/3/4 327/3/4
f 324/3/4 290/3/4 328/3/4
f 327/3/4 324/3/4 328/3/4
f 328/3/4 290/3/4 330/3/4
f 329/3/4 330/3/4 332/3/4
f 331/3/4 332/3/4 333/3/4
f 332/3/4 330/3/4 334/3/4
f 333/3/4 332/3/4 334/3/4
f 334/3/4 330/3/4 335/3/4
f 330/3/4 290/3/4 336/3/4
f 335/3/4 330/3/4 336/3/4
f 336/3/4 290/3/4 338/3/4
f 337/3/4 338/3/4 340/3/4
f 339/3/4 340/3/4 341/3/4
f 341/3/4 340/3/4 342/3/4
f 342/3/4 340/3/4 343/3/4
f 338/3/4 290/3/4 344/3/4
f 343/3/4 340/3/4 344/3/4
f 340/3/4 338/3/4 344/3/4
f 344/3/4 290/3/4 346/3/4
f 345/3/4 346/3/4 348/3/4
f 347/3/4 348/3/4 349/3/4
f 348/3/4 346/3/4 350/3/4
f 349/3/4 348/3/4 350/3/4
f 350/3/4 346/3/4 351/3/4
f 346/3/4 290/3/4 352/3/4
f 351/3/4 346/3/4 352/3/4
f 352/3/4 290/3/4 353/3/4
f 353/3/4 290/3/4 354/3/4
f 357/5/5 356/5/5 355/5/5
f 358/5/5 356/5/5 357/5/5
f 359/4/5 358/4/5 357/4/5
f 360/4/5 358/4/5 359/4/5
f 361/4/5 358/4/5 360/4/5
f 362/4/5 358/4/5 361/4/5
f 363/4/5 358/4/5 362/4/5
f 364/4/5 358/4/5 363/4/5
f 365/4/5 358/4/5 364/4/5
f 366/4/5 358/4/5 365/4/5
f 367/4/5 358/4/5 366/4/5
f 368/4/5 358/4/5 367/4/5
f 369/4/5 361/4/5 360/4/5
f 370/4/5 361/4/5 369/4/5
f 371/4/5 361/4/5 370/4/5
f 372/4/5 361/4/5 371/4/5
f 373/4/5 363/4/5 362/4/5
f 374/4/5 363/4/5 373/4/5
f 375/4/5 363/4/5 374/4/5
f 376/4/5 363/4/5 375/4/5
f 377/4/5 365/4/5 364/4/5
f 378/4/5 365/4/5 377/4/5
f 379/4/5 365/4/5 378/4/5
f 380/4/5 365/4/5 379/4/5
f 381/4/5 367/4/5 366/4/5
f 382/4/5 367/4/5 381/4/5
f 383/4/5 367/4/5 382/4/5
f 384/4/5 367/4/5 383/4/5
f 385/3/5 371/3/5 370/3/5
f 386/3/5 371/3/5 385/3/5
f 387/3/5 375/3/5 374/3/5
f 388/3/5 375/3/5 387/3/5
f 389/3/5 379/3/5 378/3/5
f 390/3/5 379/3/5 389/3/5
f 391/3/5 383/3/5 382/3/5
f 392/3/5 383/3/5 391/3/5
f 403/5/5 394/5/5 393/5/5
f 404/5/5 394/5/5 403/5/5
f 406/5/5 396/5/5 395/5/5
f 407/5/5 396/5/5 406/5/5
f 409/5/5 398/5/5 397/5/5
f 410/5/5 398/5/5 409/5/5
f 412/5/5 400/5/5 399/5/5
f 413/5/5 400/5/5 412/5/5
f 414/5/5 400/5/5 413/5/5
f 415/5/5 400/5/5 414/5/5
f 416/5/5 400/5/5 415/5/5
f 417/5/5 400/5/5 416/5/5
f 419/5/5 402/5/5 401/5/5
f 420/5/5 402/5/5 419/5/5
f 421/5/5 402/5/5 420/5/5
f 422/5/5 402/5/5 421/5/5
f 423/5/5 402/5/5 422/5/5
f 424/3/5 406/3/5 405/3/5
f 425/3/5 406/3/5 424/3/5
f 426/3/5 408/3/5 407/3/5
f 427/3/5 408/3/5 426/3/5
f 428/3/5 411/3/5 410/3/5
f 429/3/5 411/3/5 428/3/5
f 430/3/5 414/3/5 413/3/5
f 431/3/5 414/3/5 430/3/5
f 432/3/5 416/3/5 415/3/5
f 433/3/5 416/3/5 432/3/5
f 434/3/5 420/3/5 419/3/5
f 434/3/5 419/3/5 418/3/5
f 435/3/5 420/3/5 434/3/5
f 436/3/5 422/3/5 421/3/5
f 437/3/5 422/3/5 436/3/5
f 462/3/5 439/3/5 438/3/5
f 463/3/5 439/3/5 462/3/5
f 464/3/5 441/3/5 440/3/5
f 465/3/5 441/3/5 464/3/5
f 466/3/5 443/3/5 442/3/5
f 467/3/5 443/3/5 466/3/5
f 468/3/5 445/3/5 444/3/5
f 469/3/5 445/3/5 468/3/5
f 470/3/5 447/3/5 446/3/5
f 471/3/5 447/3/5 470/3/5
f 472/3/5 449/3/5 448/3/5
f 473/3/5 449/3/5 472/3/5
f 474/3/5 451/3/5 450/3/5
f 475/3/5 451/3/5 474/3/5
f 476/3/5 453/3/5 452/3/5
f 477/3/5 453/3/5 476/3/5
f 478/3/5 455/3/5 454/3/5
f 479/3/5 455/3/5 478/3/5
f 480/3/5 457/3/5 456/3/5
f 481/3/5 457/3/5 480/3/5
f 482/3/5 459/3/5 458/3/5
f 483/3/5 459/3/5 482/3/5
f 484/3/5 461/3/5 460/3/5
f 485/3/5 461/3/5 484/3/5
f 504/3/5 487/3/5 486/3/5
f 505/3/5 487/3/5 504/3/5
f 506/3/5 489/3/5 488/3/5
f 507/3/5 489/3/5 506/3/5
f 508/3/5 491/3/5 490/3/5
f 509/3/5 491/3/5 508/3/5
f 510/3/5 493/3/5 492/3/5
f 511/3/5 493/3/5 510/3/5
f 512/3/5 495/3/5 494/3/5
f 513/3/5 495/3/5 512/3/5
f 514/3/5 497/3/5 496/3/5
f 515/3/5 497/3/5 514/3/5
f 516/3/5 499/3/5 498/3/5
f 517/3/5 499/3/5 516/3/5
f 518/3/5 501/3/5 500/3/5
f 519/3/5 501/3/5 518/3/5
f 520/3/5 503/3/5 502/3/5
f 521/3/5 503/3/5 520/3/5
f 522/3/6 523/3/6 524/3/6
f 524/3/6 523/3/6 525/3/6
f 522/3/6 524/3/6 526/3/6
f 526/3/6 524/3/6 527/3/6
f 524/2/6 525/2/6 528/2/6
f 527/3/6 524/3/6 528/3/6
f 525/3/6 523/3/6 529/3/6
f 528/2/6 525/2/6 529/2/6
f 526/2/6 527/2/6 530/2/6
f 522/3/6 526/3/6 530/3/6
f 527/3/6 528/3/6 531/3/6
f 530/2/6 527/2/6 531/2/6
f 528/3/6 529/3/6 531/3/6
f 529/3/6 523/3/6 532/3/6
f 531/3/6 529/3/6 532/3/6
f 532/3/6 523/3/6 533/3/6
f 530/3/6 531/3/6 534/3/6
f 531/3/6 532/3/6 534/3/6
f 532/2/6 533/2/6 534/2/6
f 533/3/6 523/3/6 535/3/6
f 534/2/6 533/2/6 535/2/6
f 535/3/6 523/3/6 536/3/6
f 536/3/6 523/3/6 537/3/6
f 522/3/6 530/3/6 538/3/6
f 530/3/6 534/3/6 538/3/6
f 534/3/6 535/3/6 538/3/6
f 535/3/6 536/3/6 538/3/6
f 538/3/6 536/3/6 539/3/6
f 539/3/6 536/3/6 540/3/6
f 540/3/6 536/3/6 541/3/6
f 522/3/6 538/3/6 542/3/6
f 538/2/6 539/2/6 542/2/6
f 539/3/6 540/3/6 543/3/6
f 542/2/6 539/2/6 543/2/6
f 543/3/6 540/3/6 544/3/6
f 544/3/6 540/3/6 545/3/6
f 536/2/6 537/2/6 546/2/6
f 541/3/6 536/3/6 546/3/6
f 537/3/6 523/3/6 547/3/6
f 546/2/6 537/2/6 547/2/6
f 545/3/6 540/3/6 548/3/6
f 540/2/6 541/2/6 548/2/6
f 541/3/6 546/3/6 549/3/6
f 548/2/6 541/2/6 549/2/6
f 546/3/6 547/3/6 549/3/6
f 544/2/6 545/2/6 550/2/6
f 543/3/6 544/3/6 550/3/6
f 542/3/6 543/3/6 550/3/6
f 545/3/6 548/3/6 551/3/6
f 550/2/6 545/2/6 551/2/6
f 548/3/6 549/3/6 551/3/6
f 549/3/6 547/3/6 552/3/6
f 551/3/6 549/3/6 552/3/6
f 550/3/6 551/3/6 552/3/6
f 552/3/6 547/3/6 553/3/6
f 550/3/6 552/3/6 554/3/6
f 554/3/6 552/3/6 555/3/6
f 552/2/6 553/2/6 556/2/6
f 555/3/6 552/3/6 556/3/6
f 553/3/6 547/3/6 557/3/6
f 556/2/6 553/2/6 557/2/6
f 554/2/6 555/2/6 558/2/6
f 550/3/6 554/3/6 558/3/6
f 555/3/6 556/3/6 559/3/6
f 558/2/6 555/2/6 559/2/6
f 556/3/6 557/3/6 559/3/6
f 559/3/6 557/3/6 560/3/6
f 560/3/6 557/3/6 561/3/6
f 542/3/6 550/3/6 562/3/6
f 522/3/6 542/3/6 562/3/6
f 550/3/6 558/3/6 562/3/6
f 559/3/6 560/3/6 562/3/6
f 558/3/6 559/3/6 562/3/6
f 562/3/6 560/3/6 563/3/6
f 561/3/6 557/3/6 564/3/6
f 564/3/6 557/3/6 565/3/6
f 522/3/6 562/3/6 566/3/6
f 562/2/6 563/2/6 566/2/6
f 563/3/6 560/3/6 567/3/6
f 566/2/6 563/2/6 567/2/6
f 560/2/6 561/2/6 568/2/6
f 567/3/6 560/3/6 568/3/6
f 561/3/6 564/3/6 569/3/6
f 568/2/6 561/2/6 569/2/6
f 564/2/6 565/2/6 570/2/6
f 569/3/6 564/3/6 570/3/6
f 565/3/6 557/3/6 571/3/6
f 570/2/6 565/2/6 571/2/6
f 522/3/6 566/3/6 572/3/6
f 566/3/6 567/3/6 572/3/6
f 570/3/6 571/3/6 572/3/6
f 567/3/6 568/3/6 572/3/6
f 568/3/6 569/3/6 572/3/6
f 569/3/6 570/3/6 572/3/6
f 571/3/6 557/3/6 573/3/6
f 572/3/6 571/3/6 573/3/6
f 547/3/6 523/3/6 573/3/6
f 557/3/6 547/3/6 573/3/6
