# MagicaVoxel @ Ephtracy

# group
o 

# material
mtllib scorpion.mtl
usemtl palette

# normals
vn -1 0 0
vn 1 0 0
vn 0 0 1
vn 0 0 -1
vn 0 -1 0
vn 0 1 0

# texcoords
vt 0.0566406 0.5
vt 0.0644531 0.5
vt 0.404297 0.5
vt 0.978516 0.5
vt 0.986328 0.5

# verts
v 0 0 0.3
v 0 0 0.2
v 0 0 -0.1
v 0 0 -0.2
v 0 0.4 0.3
v 0 0.4 0.2
v 0 0.4 -0.1
v 0 0.4 -0.2
v 0.1 0 -0.5
v 0.1 0 -0.6
v 0.1 0.1 -0.4
v 0.1 0.1 -0.5
v 0.1 0.2 -0.5
v 0.1 0.2 -0.6
v 0.1 0.4 -0.4
v 0.1 0.4 -0.5
v 0.3 0.3 0.4
v 0.3 0.3 0.3
v 0.3 0.3 0.2
v 0.3 0.3 -0.1
v 0.3 0.3 -0.2
v 0.3 0.3 -0.4
v 0.3 0.3 -0.5
v 0.3 0.3 -0.6
v 0.3 0.4 0.3
v 0.3 0.4 0.2
v 0.3 0.4 -0.1
v 0.3 0.4 -0.2
v 0.3 0.4 -0.4
v 0.3 0.4 -0.5
v 0.3 0.5 0.6
v 0.3 0.5 0.4
v 0.3 0.5 -0.6
v 0.3 0.6 0.5
v 0.3 0.6 0.4
v 0.3 0.7 0.6
v 0.3 0.7 0.5
v 0.4 0.4 0.5
v 0.4 0.4 0.4
v 0.4 0.4 -0.6
v 0.4 0.4 -0.7
v 0.4 0.5 0.5
v 0.4 0.5 0.4
v 0.4 0.5 0.3
v 0.4 0.5 0.2
v 0.4 0.5 0.1
v 0.4 0.5 5.96046e-008
v 0.4 0.5 -0.1
v 0.4 0.5 -0.2
v 0.4 0.5 -0.3
v 0.4 0.5 -0.4
v 0.4 0.5 -0.5
v 0.4 0.5 -0.6
v 0.4 0.5 -0.7
v 0.4 0.5 -0.8
v 0.4 0.6 0.4
v 0.4 0.6 0.3
v 0.4 0.6 0.2
v 0.4 0.6 0.1
v 0.4 0.6 5.96046e-008
v 0.4 0.6 -0.1
v 0.4 0.6 -0.2
v 0.4 0.6 -0.3
v 0.4 0.6 -0.4
v 0.4 0.6 -0.5
v 0.4 0.6 -0.6
v 0.4 0.6 -0.8
v 0.4 0.6 -0.9
v 0.4 0.7 -0.6
v 0.4 0.7 -0.7
v 0.4 0.9 -0.6
v 0.4 0.9 -0.7
v 0.4 1 -0.3
v 0.4 1 -0.4
v 0.4 1 -0.6
v 0.4 1 -0.8
v 0.4 1 -0.9
v 0.4 1.1 -0.3
v 0.4 1.1 -0.4
v 0.4 1.1 -0.7
v 0.4 1.1 -0.8
v 0.4 1.2 -0.4
v 0.4 1.2 -0.7
v 0.6 0.5 0.6
v 0.6 0.5 0.5
v 0.6 0.6 0.5
v 0.6 0.7 0.6
v 0.6 0.7 0.5
v 0.8 0 -0.5
v 0.8 0 -0.6
v 0.8 0.1 -0.4
v 0.8 0.1 -0.5
v 0.8 0.2 -0.5
v 0.8 0.2 -0.6
v 0.8 0.3 -0.4
v 0.8 0.3 -0.5
v 0.9 0 0.3
v 0.9 0 0.2
v 0.9 0 -0.1
v 0.9 0 -0.2
v 0.9 0.3 0.3
v 0.9 0.3 0.2
v 0.9 0.3 -0.1
v 0.9 0.3 -0.2
v 0.1 0 0.3
v 0.1 0 0.2
v 0.1 0 -0.1
v 0.1 0 -0.2
v 0.1 0.3 0.3
v 0.1 0.3 0.2
v 0.1 0.3 -0.1
v 0.1 0.3 -0.2
v 0.2 0 -0.5
v 0.2 0 -0.6
v 0.2 0.1 -0.4
v 0.2 0.1 -0.5
v 0.2 0.2 -0.5
v 0.2 0.2 -0.6
v 0.2 0.3 -0.4
v 0.2 0.3 -0.5
v 0.4 0.5 0.6
v 0.4 0.5 0.5
v 0.4 0.6 0.5
v 0.4 0.7 0.6
v 0.4 0.7 0.5
v 0.6 0.4 0.5
v 0.6 0.4 0.4
v 0.6 0.4 -0.6
v 0.6 0.4 -0.7
v 0.6 0.5 0.5
v 0.6 0.5 0.4
v 0.6 0.5 0.3
v 0.6 0.5 0.2
v 0.6 0.5 0.1
v 0.6 0.5 5.96046e-008
v 0.6 0.5 -0.1
v 0.6 0.5 -0.2
v 0.6 0.5 -0.3
v 0.6 0.5 -0.4
v 0.6 0.5 -0.5
v 0.6 0.5 -0.6
v 0.6 0.5 -0.7
v 0.6 0.5 -0.8
v 0.6 0.6 0.4
v 0.6 0.6 0.3
v 0.6 0.6 0.2
v 0.6 0.6 0.1
v 0.6 0.6 5.96046e-008
v 0.6 0.6 -0.1
v 0.6 0.6 -0.2
v 0.6 0.6 -0.3
v 0.6 0.6 -0.4
v 0.6 0.6 -0.5
v 0.6 0.6 -0.6
v 0.6 0.6 -0.8
v 0.6 0.6 -0.9
v 0.6 0.7 -0.6
v 0.6 0.7 -0.7
v 0.6 0.9 -0.6
v 0.6 0.9 -0.7
v 0.6 1 -0.3
v 0.6 1 -0.4
v 0.6 1 -0.6
v 0.6 1 -0.8
v 0.6 1 -0.9
v 0.6 1.1 -0.3
v 0.6 1.1 -0.4
v 0.6 1.1 -0.7
v 0.6 1.1 -0.8
v 0.6 1.2 -0.4
v 0.6 1.2 -0.7
v 0.7 0.3 0.4
v 0.7 0.3 0.3
v 0.7 0.3 0.2
v 0.7 0.3 -0.1
v 0.7 0.3 -0.2
v 0.7 0.3 -0.4
v 0.7 0.3 -0.5
v 0.7 0.3 -0.6
v 0.7 0.4 0.3
v 0.7 0.4 0.2
v 0.7 0.4 -0.1
v 0.7 0.4 -0.2
v 0.7 0.4 -0.4
v 0.7 0.4 -0.5
v 0.7 0.5 0.6
v 0.7 0.5 0.4
v 0.7 0.5 -0.6
v 0.7 0.6 0.5
v 0.7 0.6 0.4
v 0.7 0.7 0.6
v 0.7 0.7 0.5
v 0.9 0 -0.5
v 0.9 0 -0.6
v 0.9 0.1 -0.4
v 0.9 0.1 -0.5
v 0.9 0.2 -0.5
v 0.9 0.2 -0.6
v 0.9 0.4 -0.4
v 0.9 0.4 -0.5
v 1 0 0.3
v 1 0 0.2
v 1 0 -0.1
v 1 0 -0.2
v 1 0.4 0.3
v 1 0.4 0.2
v 1 0.4 -0.1
v 1 0.4 -0.2
v 0.3 0.5 0.6
v 0.3 0.7 0.6
v 0.4 0.5 0.6
v 0.4 0.7 0.6
v 0.6 0.5 0.6
v 0.6 0.7 0.6
v 0.7 0.5 0.6
v 0.7 0.7 0.6
v 0.4 0.4 0.5
v 0.4 0.5 0.5
v 0.4 0.6 0.5
v 0.6 0.4 0.5
v 0.6 0.5 0.5
v 0.6 0.6 0.5
v 0.3 0.3 0.4
v 0.3 0.5 0.4
v 0.4 0.4 0.4
v 0.4 0.5 0.4
v 0.6 0.4 0.4
v 0.6 0.5 0.4
v 0.7 0.3 0.4
v 0.7 0.5 0.4
v 0 0 0.3
v 0 0.4 0.3
v 0.1 0 0.3
v 0.1 0.3 0.3
v 0.3 0.3 0.3
v 0.3 0.4 0.3
v 0.7 0.3 0.3
v 0.7 0.4 0.3
v 0.9 0 0.3
v 0.9 0.3 0.3
v 1 0 0.3
v 1 0.4 0.3
v 0.4 0.5 0.2
v 0.4 0.6 0.2
v 0.5 0.5 0.2
v 0.5 0.6 0.2
v 0.6 0.5 0.2
v 0.6 0.6 0.2
v 0 0 -0.1
v 0 0.4 -0.1
v 0.1 0 -0.1
v 0.1 0.3 -0.1
v 0.3 0.3 -0.1
v 0.3 0.4 -0.1
v 0.7 0.3 -0.1
v 0.7 0.4 -0.1
v 0.9 0 -0.1
v 0.9 0.3 -0.1
v 1 0 -0.1
v 1 0.4 -0.1
v 0.4 1 -0.3
v 0.4 1.1 -0.3
v 0.6 1 -0.3
v 0.6 1.1 -0.3
v 0.1 0.1 -0.4
v 0.1 0.4 -0.4
v 0.2 0.1 -0.4
v 0.2 0.3 -0.4
v 0.3 0.3 -0.4
v 0.3 0.4 -0.4
v 0.4 1.1 -0.4
v 0.4 1.2 -0.4
v 0.6 1.1 -0.4
v 0.6 1.2 -0.4
v 0.7 0.3 -0.4
v 0.7 0.4 -0.4
v 0.8 0.1 -0.4
v 0.8 0.3 -0.4
v 0.9 0.1 -0.4
v 0.9 0.4 -0.4
v 0.1 0 -0.5
v 0.1 0.1 -0.5
v 0.2 0 -0.5
v 0.2 0.1 -0.5
v 0.4 0.5 -0.5
v 0.4 0.6 -0.5
v 0.6 0.5 -0.5
v 0.6 0.6 -0.5
v 0.8 0 -0.5
v 0.8 0.1 -0.5
v 0.9 0 -0.5
v 0.9 0.1 -0.5
v 0.4 0.6 -0.6
v 0.4 0.7 -0.6
v 0.4 0.9 -0.6
v 0.4 1 -0.6
v 0.6 0.6 -0.6
v 0.6 0.7 -0.6
v 0.6 0.9 -0.6
v 0.6 1 -0.6
v 0.4 0.7 -0.7
v 0.4 0.9 -0.7
v 0.6 0.7 -0.7
v 0.6 0.9 -0.7
v 0.3 0.6 0.5
v 0.3 0.7 0.5
v 0.4 0.6 0.5
v 0.4 0.7 0.5
v 0.6 0.6 0.5
v 0.6 0.7 0.5
v 0.7 0.6 0.5
v 0.7 0.7 0.5
v 0.3 0.5 0.4
v 0.3 0.6 0.4
v 0.4 0.5 0.4
v 0.4 0.6 0.4
v 0.6 0.5 0.4
v 0.6 0.6 0.4
v 0.7 0.5 0.4
v 0.7 0.6 0.4
v 0.4 0.5 0.3
v 0.4 0.6 0.3
v 0.6 0.5 0.3
v 0.6 0.6 0.3
v 0 0 0.2
v 0 0.4 0.2
v 0.1 0 0.2
v 0.1 0.3 0.2
v 0.3 0.3 0.2
v 0.3 0.4 0.2
v 0.7 0.3 0.2
v 0.7 0.4 0.2
v 0.9 0 0.2
v 0.9 0.3 0.2
v 1 0 0.2
v 1 0.4 0.2
v 0 0 -0.2
v 0 0.4 -0.2
v 0.1 0 -0.2
v 0.1 0.3 -0.2
v 0.3 0.3 -0.2
v 0.3 0.4 -0.2
v 0.7 0.3 -0.2
v 0.7 0.4 -0.2
v 0.9 0 -0.2
v 0.9 0.3 -0.2
v 1 0 -0.2
v 1 0.4 -0.2
v 0.4 0.5 -0.4
v 0.4 0.6 -0.4
v 0.5 0.5 -0.4
v 0.5 0.6 -0.4
v 0.6 0.5 -0.4
v 0.6 0.6 -0.4
v 0.1 0.2 -0.5
v 0.1 0.4 -0.5
v 0.2 0.2 -0.5
v 0.2 0.3 -0.5
v 0.3 0.3 -0.5
v 0.3 0.4 -0.5
v 0.7 0.3 -0.5
v 0.7 0.4 -0.5
v 0.8 0.2 -0.5
v 0.8 0.3 -0.5
v 0.9 0.2 -0.5
v 0.9 0.4 -0.5
v 0.1 0 -0.6
v 0.1 0.2 -0.6
v 0.2 0 -0.6
v 0.2 0.2 -0.6
v 0.3 0.3 -0.6
v 0.3 0.5 -0.6
v 0.4 0.4 -0.6
v 0.4 0.5 -0.6
v 0.6 0.4 -0.6
v 0.6 0.5 -0.6
v 0.7 0.3 -0.6
v 0.7 0.5 -0.6
v 0.8 0 -0.6
v 0.8 0.2 -0.6
v 0.9 0 -0.6
v 0.9 0.2 -0.6
v 0.4 0.4 -0.7
v 0.4 0.5 -0.7
v 0.4 1.1 -0.7
v 0.4 1.2 -0.7
v 0.6 0.4 -0.7
v 0.6 0.5 -0.7
v 0.6 1.1 -0.7
v 0.6 1.2 -0.7
v 0.4 0.5 -0.8
v 0.4 0.6 -0.8
v 0.4 1 -0.8
v 0.4 1.1 -0.8
v 0.6 0.5 -0.8
v 0.6 0.6 -0.8
v 0.6 1 -0.8
v 0.6 1.1 -0.8
v 0.4 0.6 -0.9
v 0.4 1 -0.9
v 0.6 0.6 -0.9
v 0.6 1 -0.9
v 0 0 0.3
v 0.1 0 0.3
v 0.9 0 0.3
v 1 0 0.3
v 0 0 0.2
v 0.1 0 0.2
v 0.9 0 0.2
v 1 0 0.2
v 0 0 -0.1
v 0.1 0 -0.1
v 0.9 0 -0.1
v 1 0 -0.1
v 0 0 -0.2
v 0.1 0 -0.2
v 0.9 0 -0.2
v 1 0 -0.2
v 0.1 0 -0.5
v 0.2 0 -0.5
v 0.8 0 -0.5
v 0.9 0 -0.5
v 0.1 0 -0.6
v 0.2 0 -0.6
v 0.8 0 -0.6
v 0.9 0 -0.6
v 0.1 0.1 -0.4
v 0.2 0.1 -0.4
v 0.8 0.1 -0.4
v 0.9 0.1 -0.4
v 0.1 0.1 -0.5
v 0.2 0.1 -0.5
v 0.8 0.1 -0.5
v 0.9 0.1 -0.5
v 0.3 0.3 0.4
v 0.7 0.3 0.4
v 0.1 0.3 0.3
v 0.3 0.3 0.3
v 0.7 0.3 0.3
v 0.9 0.3 0.3
v 0.1 0.3 0.2
v 0.3 0.3 0.2
v 0.7 0.3 0.2
v 0.9 0.3 0.2
v 0.1 0.3 -0.1
v 0.3 0.3 -0.1
v 0.7 0.3 -0.1
v 0.9 0.3 -0.1
v 0.1 0.3 -0.2
v 0.3 0.3 -0.2
v 0.7 0.3 -0.2
v 0.9 0.3 -0.2
v 0.2 0.3 -0.4
v 0.3 0.3 -0.4
v 0.7 0.3 -0.4
v 0.8 0.3 -0.4
v 0.2 0.3 -0.5
v 0.3 0.3 -0.5
v 0.7 0.3 -0.5
v 0.8 0.3 -0.5
v 0.3 0.3 -0.6
v 0.7 0.3 -0.6
v 0.4 0.4 0.5
v 0.6 0.4 0.5
v 0.4 0.4 0.4
v 0.6 0.4 0.4
v 0.4 0.4 -0.6
v 0.6 0.4 -0.6
v 0.4 0.4 -0.7
v 0.6 0.4 -0.7
v 0.3 0.5 0.6
v 0.4 0.5 0.6
v 0.6 0.5 0.6
v 0.7 0.5 0.6
v 0.4 0.5 0.5
v 0.6 0.5 0.5
v 0.3 0.5 0.4
v 0.4 0.5 0.4
v 0.6 0.5 0.4
v 0.7 0.5 0.4
v 0.4 0.5 -0.7
v 0.6 0.5 -0.7
v 0.4 0.5 -0.8
v 0.6 0.5 -0.8
v 0.4 0.6 -0.8
v 0.6 0.6 -0.8
v 0.4 0.6 -0.9
v 0.6 0.6 -0.9
v 0.4 0.9 -0.6
v 0.6 0.9 -0.6
v 0.4 0.9 -0.7
v 0.6 0.9 -0.7
v 0.4 1 -0.3
v 0.6 1 -0.3
v 0.4 1 -0.4
v 0.6 1 -0.4
v 0.4 1 -0.6
v 0.6 1 -0.6
v 0.1 0.2 -0.5
v 0.2 0.2 -0.5
v 0.8 0.2 -0.5
v 0.9 0.2 -0.5
v 0.1 0.2 -0.6
v 0.2 0.2 -0.6
v 0.8 0.2 -0.6
v 0.9 0.2 -0.6
v 0 0.4 0.3
v 0.3 0.4 0.3
v 0.7 0.4 0.3
v 1 0.4 0.3
v 0 0.4 0.2
v 0.3 0.4 0.2
v 0.7 0.4 0.2
v 1 0.4 0.2
v 0 0.4 -0.1
v 0.3 0.4 -0.1
v 0.7 0.4 -0.1
v 1 0.4 -0.1
v 0 0.4 -0.2
v 0.3 0.4 -0.2
v 0.7 0.4 -0.2
v 1 0.4 -0.2
v 0.1 0.4 -0.4
v 0.3 0.4 -0.4
v 0.7 0.4 -0.4
v 0.9 0.4 -0.4
v 0.1 0.4 -0.5
v 0.3 0.4 -0.5
v 0.7 0.4 -0.5
v 0.9 0.4 -0.5
v 0.3 0.5 0.4
v 0.4 0.5 0.4
v 0.6 0.5 0.4
v 0.7 0.5 0.4
v 0.4 0.5 0.3
v 0.6 0.5 0.3
v 0.4 0.5 0.2
v 0.5 0.5 0.2
v 0.6 0.5 0.2
v 0.4 0.5 0.1
v 0.6 0.5 0.1
v 0.4 0.5 5.96046e-008
v 0.6 0.5 5.96046e-008
v 0.4 0.5 -0.1
v 0.6 0.5 -0.1
v 0.4 0.5 -0.2
v 0.6 0.5 -0.2
v 0.4 0.5 -0.3
v 0.6 0.5 -0.3
v 0.4 0.5 -0.4
v 0.5 0.5 -0.4
v 0.6 0.5 -0.4
v 0.4 0.5 -0.5
v 0.6 0.5 -0.5
v 0.3 0.5 -0.6
v 0.4 0.5 -0.6
v 0.6 0.5 -0.6
v 0.7 0.5 -0.6
v 0.3 0.6 0.5
v 0.4 0.6 0.5
v 0.6 0.6 0.5
v 0.7 0.6 0.5
v 0.3 0.6 0.4
v 0.4 0.6 0.4
v 0.6 0.6 0.4
v 0.7 0.6 0.4
v 0.4 0.6 0.3
v 0.6 0.6 0.3
v 0.4 0.6 0.2
v 0.5 0.6 0.2
v 0.6 0.6 0.2
v 0.4 0.6 0.1
v 0.5 0.6 0.1
v 0.6 0.6 0.1
v 0.4 0.6 5.96046e-008
v 0.5 0.6 5.96046e-008
v 0.6 0.6 5.96046e-008
v 0.4 0.6 -0.1
v 0.5 0.6 -0.1
v 0.6 0.6 -0.1
v 0.4 0.6 -0.2
v 0.5 0.6 -0.2
v 0.6 0.6 -0.2
v 0.4 0.6 -0.3
v 0.5 0.6 -0.3
v 0.6 0.6 -0.3
v 0.4 0.6 -0.4
v 0.5 0.6 -0.4
v 0.6 0.6 -0.4
v 0.4 0.6 -0.5
v 0.6 0.6 -0.5
v 0.4 0.6 -0.6
v 0.6 0.6 -0.6
v 0.3 0.7 0.6
v 0.4 0.7 0.6
v 0.6 0.7 0.6
v 0.7 0.7 0.6
v 0.3 0.7 0.5
v 0.4 0.7 0.5
v 0.6 0.7 0.5
v 0.7 0.7 0.5
v 0.4 0.7 -0.6
v 0.6 0.7 -0.6
v 0.4 0.7 -0.7
v 0.6 0.7 -0.7
v 0.4 1 -0.8
v 0.6 1 -0.8
v 0.4 1 -0.9
v 0.6 1 -0.9
v 0.4 1.1 -0.3
v 0.6 1.1 -0.3
v 0.4 1.1 -0.4
v 0.6 1.1 -0.4
v 0.4 1.1 -0.7
v 0.6 1.1 -0.7
v 0.4 1.1 -0.8
v 0.6 1.1 -0.8
v 0.4 1.2 -0.4
v 0.6 1.2 -0.4
v 0.4 1.2 -0.7
v 0.6 1.2 -0.7

# faces
f 5/4/1 2/4/1 1/4/1
f 6/4/1 2/4/1 5/4/1
f 7/4/1 4/4/1 3/4/1
f 8/4/1 4/4/1 7/4/1
f 12/4/1 10/4/1 9/4/1
f 13/4/1 10/4/1 12/4/1
f 13/4/1 12/4/1 11/4/1
f 14/4/1 10/4/1 13/4/1
f 15/4/1 13/4/1 11/4/1
f 16/4/1 13/4/1 15/4/1
f 25/4/1 18/4/1 17/4/1
f 26/4/1 20/4/1 19/4/1
f 27/4/1 20/4/1 26/4/1
f 28/4/1 22/4/1 21/4/1
f 29/4/1 22/4/1 28/4/1
f 30/4/1 24/4/1 23/4/1
f 32/4/1 29/4/1 28/4/1
f 32/4/1 30/4/1 29/4/1
f 32/4/1 25/4/1 17/4/1
f 32/4/1 27/4/1 26/4/1
f 32/4/1 28/4/1 27/4/1
f 32/4/1 26/4/1 25/4/1
f 33/4/1 24/4/1 30/4/1
f 33/4/1 30/4/1 32/4/1
f 34/5/1 32/5/1 31/5/1
f 35/5/1 32/5/1 34/5/1
f 36/5/1 34/5/1 31/5/1
f 37/5/1 34/5/1 36/5/1
f 42/4/1 39/4/1 38/4/1
f 43/4/1 39/4/1 42/4/1
f 53/5/1 41/5/1 40/5/1
f 54/5/1 41/5/1 53/5/1
f 56/4/1 44/4/1 43/4/1
f 57/4/1 44/4/1 56/4/1
f 58/1/1 46/1/1 45/1/1
f 59/3/1 47/3/1 46/3/1
f 59/1/1 46/1/1 58/1/1
f 60/1/1 48/1/1 47/1/1
f 60/3/1 47/3/1 59/3/1
f 61/3/1 49/3/1 48/3/1
f 61/1/1 48/1/1 60/1/1
f 62/1/1 50/1/1 49/1/1
f 62/3/1 49/3/1 61/3/1
f 63/3/1 51/3/1 50/3/1
f 63/1/1 50/1/1 62/1/1
f 64/3/1 51/3/1 63/3/1
f 65/5/1 55/5/1 54/5/1
f 65/5/1 54/5/1 53/5/1
f 65/5/1 53/5/1 52/5/1
f 66/5/1 55/5/1 65/5/1
f 67/5/1 55/5/1 66/5/1
f 69/5/1 68/5/1 67/5/1
f 69/5/1 67/5/1 66/5/1
f 70/5/1 68/5/1 69/5/1
f 72/5/1 68/5/1 70/5/1
f 75/5/1 72/5/1 71/5/1
f 76/5/1 68/5/1 72/5/1
f 76/5/1 72/5/1 75/5/1
f 77/5/1 68/5/1 76/5/1
f 78/2/1 74/2/1 73/2/1
f 79/5/1 75/5/1 74/5/1
f 79/2/1 74/2/1 78/2/1
f 79/5/1 76/5/1 75/5/1
f 80/5/1 76/5/1 79/5/1
f 81/5/1 76/5/1 80/5/1
f 82/5/1 80/5/1 79/5/1
f 83/5/1 80/5/1 82/5/1
f 86/5/1 85/5/1 84/5/1
f 87/5/1 86/5/1 84/5/1
f 88/5/1 86/5/1 87/5/1
f 92/4/1 90/4/1 89/4/1
f 93/4/1 90/4/1 92/4/1
f 93/4/1 92/4/1 91/4/1
f 94/4/1 90/4/1 93/4/1
f 95/4/1 93/4/1 91/4/1
f 96/4/1 93/4/1 95/4/1
f 101/4/1 98/4/1 97/4/1
f 102/4/1 98/4/1 101/4/1
f 103/4/1 100/4/1 99/4/1
f 104/4/1 100/4/1 103/4/1
f 105/4/2 106/4/2 109/4/2
f 109/4/2 106/4/2 110/4/2
f 107/4/2 108/4/2 111/4/2
f 111/4/2 108/4/2 112/4/2
f 113/4/2 114/4/2 116/4/2
f 116/4/2 114/4/2 117/4/2
f 115/4/2 116/4/2 117/4/2
f 117/4/2 114/4/2 118/4/2
f 115/4/2 117/4/2 119/4/2
f 119/4/2 117/4/2 120/4/2
f 121/5/2 122/5/2 123/5/2
f 121/5/2 123/5/2 124/5/2
f 124/5/2 123/5/2 125/5/2
f 126/4/2 127/4/2 130/4/2
f 130/4/2 127/4/2 131/4/2
f 128/5/2 129/5/2 141/5/2
f 141/5/2 129/5/2 142/5/2
f 131/4/2 132/4/2 144/4/2
f 144/4/2 132/4/2 145/4/2
f 133/3/2 134/3/2 146/3/2
f 134/1/2 135/1/2 147/1/2
f 146/3/2 134/3/2 147/3/2
f 135/3/2 136/3/2 148/3/2
f 147/1/2 135/1/2 148/1/2
f 136/1/2 137/1/2 149/1/2
f 148/3/2 136/3/2 149/3/2
f 137/3/2 138/3/2 150/3/2
f 149/1/2 137/1/2 150/1/2
f 138/1/2 139/1/2 151/1/2
f 150/3/2 138/3/2 151/3/2
f 151/1/2 139/1/2 152/1/2
f 142/5/2 143/5/2 153/5/2
f 141/5/2 142/5/2 153/5/2
f 140/5/2 141/5/2 153/5/2
f 153/5/2 143/5/2 154/5/2
f 154/5/2 143/5/2 155/5/2
f 155/5/2 156/5/2 157/5/2
f 154/5/2 155/5/2 157/5/2
f 157/5/2 156/5/2 158/5/2
f 158/5/2 156/5/2 160/5/2
f 159/5/2 160/5/2 163/5/2
f 160/5/2 156/5/2 164/5/2
f 163/5/2 160/5/2 164/5/2
f 164/5/2 156/5/2 165/5/2
f 161/2/2 162/2/2 166/2/2
f 162/5/2 163/5/2 167/5/2
f 166/2/2 162/2/2 167/2/2
f 163/5/2 164/5/2 167/5/2
f 167/5/2 164/5/2 168/5/2
f 168/5/2 164/5/2 169/5/2
f 167/5/2 168/5/2 170/5/2
f 170/5/2 168/5/2 171/5/2
f 172/4/2 173/4/2 180/4/2
f 174/4/2 175/4/2 181/4/2
f 181/4/2 175/4/2 182/4/2
f 176/4/2 177/4/2 183/4/2
f 183/4/2 177/4/2 184/4/2
f 178/4/2 179/4/2 185/4/2
f 183/4/2 184/4/2 187/4/2
f 184/4/2 185/4/2 187/4/2
f 172/4/2 180/4/2 187/4/2
f 181/4/2 182/4/2 187/4/2
f 182/4/2 183/4/2 187/4/2
f 180/4/2 181/4/2 187/4/2
f 185/4/2 179/4/2 188/4/2
f 187/4/2 185/4/2 188/4/2
f 186/5/2 187/5/2 189/5/2
f 189/5/2 187/5/2 190/5/2
f 186/5/2 189/5/2 191/5/2
f 191/5/2 189/5/2 192/5/2
f 193/4/2 194/4/2 196/4/2
f 196/4/2 194/4/2 197/4/2
f 195/4/2 196/4/2 197/4/2
f 197/4/2 194/4/2 198/4/2
f 195/4/2 197/4/2 199/4/2
f 199/4/2 197/4/2 200/4/2
f 201/4/2 202/4/2 205/4/2
f 205/4/2 202/4/2 206/4/2
f 203/4/2 204/4/2 207/4/2
f 207/4/2 204/4/2 208/4/2
f 211/5/3 210/5/3 209/5/3
f 212/5/3 210/5/3 211/5/3
f 215/5/3 214/5/3 213/5/3
f 216/5/3 214/5/3 215/5/3
f 220/4/3 218/4/3 217/4/3
f 220/4/3 219/4/3 218/4/3
f 221/4/3 219/4/3 220/4/3
f 222/4/3 219/4/3 221/4/3
f 225/4/3 224/4/3 223/4/3
f 226/4/3 224/4/3 225/4/3
f 227/4/3 225/4/3 223/4/3
f 229/4/3 227/4/3 223/4/3
f 229/4/3 228/4/3 227/4/3
f 230/4/3 228/4/3 229/4/3
f 233/4/3 232/4/3 231/4/3
f 234/4/3 232/4/3 233/4/3
f 235/4/3 232/4/3 234/4/3
f 236/4/3 232/4/3 235/4/3
f 240/4/3 238/4/3 237/4/3
f 241/4/3 240/4/3 239/4/3
f 242/4/3 238/4/3 240/4/3
f 242/4/3 240/4/3 241/4/3
f 245/1/3 244/1/3 243/1/3
f 246/1/3 244/1/3 245/1/3
f 247/3/3 246/3/3 245/3/3
f 248/3/3 246/3/3 247/3/3
f 251/4/3 250/4/3 249/4/3
f 252/4/3 250/4/3 251/4/3
f 253/4/3 250/4/3 252/4/3
f 254/4/3 250/4/3 253/4/3
f 258/4/3 256/4/3 255/4/3
f 259/4/3 258/4/3 257/4/3
f 260/4/3 256/4/3 258/4/3
f 260/4/3 258/4/3 259/4/3
f 263/2/3 262/2/3 261/2/3
f 264/2/3 262/2/3 263/2/3
f 267/4/3 266/4/3 265/4/3
f 268/4/3 266/4/3 267/4/3
f 269/4/3 266/4/3 268/4/3
f 270/4/3 266/4/3 269/4/3
f 273/5/3 272/5/3 271/5/3
f 274/5/3 272/5/3 273/5/3
f 278/4/3 276/4/3 275/4/3
f 279/4/3 278/4/3 277/4/3
f 280/4/3 276/4/3 278/4/3
f 280/4/3 278/4/3 279/4/3
f 283/4/3 282/4/3 281/4/3
f 284/4/3 282/4/3 283/4/3
f 287/5/3 286/5/3 285/5/3
f 288/5/3 286/5/3 287/5/3
f 291/4/3 290/4/3 289/4/3
f 292/4/3 290/4/3 291/4/3
f 297/5/3 294/5/3 293/5/3
f 298/5/3 294/5/3 297/5/3
f 299/5/3 296/5/3 295/5/3
f 300/5/3 296/5/3 299/5/3
f 303/5/3 302/5/3 301/5/3
f 304/5/3 302/5/3 303/5/3
f 305/5/4 306/5/4 307/5/4
f 307/5/4 306/5/4 308/5/4
f 309/5/4 310/5/4 311/5/4
f 311/5/4 310/5/4 312/5/4
f 313/5/4 314/5/4 315/5/4
f 315/5/4 314/5/4 316/5/4
f 317/5/4 318/5/4 319/5/4
f 319/5/4 318/5/4 320/5/4
f 321/4/4 322/4/4 323/4/4
f 323/4/4 322/4/4 324/4/4
f 325/4/4 326/4/4 327/4/4
f 327/4/4 326/4/4 328/4/4
f 328/4/4 326/4/4 329/4/4
f 329/4/4 326/4/4 330/4/4
f 331/4/4 332/4/4 334/4/4
f 333/4/4 334/4/4 335/4/4
f 334/4/4 332/4/4 336/4/4
f 335/4/4 334/4/4 336/4/4
f 337/4/4 338/4/4 339/4/4
f 339/4/4 338/4/4 340/4/4
f 340/4/4 338/4/4 341/4/4
f 341/4/4 338/4/4 342/4/4
f 343/4/4 344/4/4 346/4/4
f 345/4/4 346/4/4 347/4/4
f 346/4/4 344/4/4 348/4/4
f 347/4/4 346/4/4 348/4/4
f 349/3/4 350/3/4 351/3/4
f 351/3/4 350/3/4 352/3/4
f 351/1/4 352/1/4 353/1/4
f 353/1/4 352/1/4 354/1/4
f 355/4/4 356/4/4 357/4/4
f 357/4/4 356/4/4 358/4/4
f 358/4/4 356/4/4 359/4/4
f 359/4/4 356/4/4 360/4/4
f 361/4/4 362/4/4 364/4/4
f 363/4/4 364/4/4 365/4/4
f 364/4/4 362/4/4 366/4/4
f 365/4/4 364/4/4 366/4/4
f 367/4/4 368/4/4 369/4/4
f 369/4/4 368/4/4 370/4/4
f 371/4/4 372/4/4 373/4/4
f 373/4/4 372/4/4 374/4/4
f 371/4/4 373/4/4 375/4/4
f 371/4/4 375/4/4 377/4/4
f 375/4/4 376/4/4 377/4/4
f 377/4/4 376/4/4 378/4/4
f 379/4/4 380/4/4 381/4/4
f 381/4/4 380/4/4 382/4/4
f 383/5/4 384/5/4 387/5/4
f 387/5/4 384/5/4 388/5/4
f 385/5/4 386/5/4 389/5/4
f 389/5/4 386/5/4 390/5/4
f 391/5/4 392/5/4 395/5/4
f 395/5/4 392/5/4 396/5/4
f 393/5/4 394/5/4 397/5/4
f 397/5/4 394/5/4 398/5/4
f 399/5/4 400/5/4 401/5/4
f 401/5/4 400/5/4 402/5/4
f 407/4/5 404/4/5 403/4/5
f 408/4/5 404/4/5 407/4/5
f 409/4/5 406/4/5 405/4/5
f 410/4/5 406/4/5 409/4/5
f 415/4/5 412/4/5 411/4/5
f 416/4/5 412/4/5 415/4/5
f 417/4/5 414/4/5 413/4/5
f 418/4/5 414/4/5 417/4/5
f 423/4/5 420/4/5 419/4/5
f 424/4/5 420/4/5 423/4/5
f 425/4/5 422/4/5 421/4/5
f 426/4/5 422/4/5 425/4/5
f 431/4/5 428/4/5 427/4/5
f 432/4/5 428/4/5 431/4/5
f 433/4/5 430/4/5 429/4/5
f 434/4/5 430/4/5 433/4/5
f 438/4/5 436/4/5 435/4/5
f 439/4/5 436/4/5 438/4/5
f 441/4/5 438/4/5 437/4/5
f 441/4/5 440/4/5 439/4/5
f 441/4/5 439/4/5 438/4/5
f 442/4/5 440/4/5 441/4/5
f 443/4/5 440/4/5 442/4/5
f 444/4/5 440/4/5 443/4/5
f 446/4/5 443/4/5 442/4/5
f 447/4/5 443/4/5 446/4/5
f 449/4/5 446/4/5 445/4/5
f 449/4/5 448/4/5 447/4/5
f 449/4/5 447/4/5 446/4/5
f 450/4/5 448/4/5 449/4/5
f 451/4/5 448/4/5 450/4/5
f 452/4/5 448/4/5 451/4/5
f 454/4/5 451/4/5 450/4/5
f 455/4/5 451/4/5 454/4/5
f 457/4/5 454/4/5 453/4/5
f 457/4/5 456/4/5 455/4/5
f 457/4/5 455/4/5 454/4/5
f 458/4/5 456/4/5 457/4/5
f 459/4/5 456/4/5 458/4/5
f 460/4/5 456/4/5 459/4/5
f 461/4/5 459/4/5 458/4/5
f 462/4/5 459/4/5 461/4/5
f 465/4/5 464/4/5 463/4/5
f 466/4/5 464/4/5 465/4/5
f 469/5/5 468/5/5 467/5/5
f 470/5/5 468/5/5 469/5/5
f 475/5/5 472/5/5 471/5/5
f 476/5/5 474/5/5 473/5/5
f 477/5/5 475/5/5 471/5/5
f 478/5/5 475/5/5 477/5/5
f 479/5/5 474/5/5 476/5/5
f 480/5/5 474/5/5 479/5/5
f 483/5/5 482/5/5 481/5/5
f 484/5/5 482/5/5 483/5/5
f 487/5/5 486/5/5 485/5/5
f 488/5/5 486/5/5 487/5/5
f 491/5/5 490/5/5 489/5/5
f 492/5/5 490/5/5 491/5/5
f 495/2/5 494/2/5 493/2/5
f 496/2/5 494/2/5 495/2/5
f 497/5/5 496/5/5 495/5/5
f 498/5/5 496/5/5 497/5/5
f 499/4/6 500/4/6 503/4/6
f 503/4/6 500/4/6 504/4/6
f 501/4/6 502/4/6 505/4/6
f 505/4/6 502/4/6 506/4/6
f 507/4/6 508/4/6 511/4/6
f 511/4/6 508/4/6 512/4/6
f 509/4/6 510/4/6 513/4/6
f 513/4/6 510/4/6 514/4/6
f 515/4/6 516/4/6 519/4/6
f 519/4/6 516/4/6 520/4/6
f 517/4/6 518/4/6 521/4/6
f 521/4/6 518/4/6 522/4/6
f 523/4/6 524/4/6 527/4/6
f 527/4/6 524/4/6 528/4/6
f 525/4/6 526/4/6 529/4/6
f 529/4/6 526/4/6 530/4/6
f 531/4/6 532/4/6 535/4/6
f 533/4/6 534/4/6 536/4/6
f 531/4/6 535/4/6 537/4/6
f 535/4/6 536/4/6 537/4/6
f 537/4/6 536/4/6 538/4/6
f 536/4/6 534/4/6 539/4/6
f 538/4/6 536/4/6 539/4/6
f 531/4/6 537/4/6 540/4/6
f 539/4/6 534/4/6 541/4/6
f 531/4/6 540/4/6 542/4/6
f 541/4/6 534/4/6 543/4/6
f 531/4/6 542/4/6 544/4/6
f 543/4/6 534/4/6 545/4/6
f 531/4/6 544/4/6 546/4/6
f 545/4/6 534/4/6 547/4/6
f 531/4/6 546/4/6 548/4/6
f 547/4/6 534/4/6 549/4/6
f 531/4/6 548/4/6 550/4/6
f 549/4/6 534/4/6 552/4/6
f 550/4/6 551/4/6 553/4/6
f 551/4/6 552/4/6 553/4/6
f 531/4/6 550/4/6 553/4/6
f 552/4/6 534/4/6 554/4/6
f 553/4/6 552/4/6 554/4/6
f 531/4/6 553/4/6 555/4/6
f 555/4/6 553/4/6 556/4/6
f 554/4/6 534/4/6 557/4/6
f 557/4/6 534/4/6 558/4/6
f 559/5/6 560/5/6 563/5/6
f 560/4/6 561/4/6 564/4/6
f 563/5/6 560/5/6 564/5/6
f 561/5/6 562/5/6 565/5/6
f 564/4/6 561/4/6 565/4/6
f 565/5/6 562/5/6 566/5/6
f 564/4/6 565/4/6 567/4/6
f 567/4/6 565/4/6 568/4/6
f 569/1/6 570/1/6 572/1/6
f 570/3/6 571/3/6 573/3/6
f 572/1/6 570/1/6 573/1/6
f 573/3/6 571/3/6 574/3/6
f 572/3/6 573/3/6 575/3/6
f 573/1/6 574/1/6 576/1/6
f 575/3/6 573/3/6 576/3/6
f 576/1/6 574/1/6 577/1/6
f 575/1/6 576/1/6 578/1/6
f 576/3/6 577/3/6 579/3/6
f 578/1/6 576/1/6 579/1/6
f 579/3/6 577/3/6 580/3/6
f 578/3/6 579/3/6 581/3/6
f 579/1/6 580/1/6 582/1/6
f 581/3/6 579/3/6 582/3/6
f 582/1/6 580/1/6 583/1/6
f 581/1/6 582/1/6 584/1/6
f 582/3/6 583/3/6 585/3/6
f 584/1/6 582/1/6 585/1/6
f 585/3/6 583/3/6 586/3/6
f 584/3/6 585/3/6 587/3/6
f 585/1/6 586/1/6 588/1/6
f 587/3/6 585/3/6 588/3/6
f 588/1/6 586/1/6 589/1/6
f 590/5/6 591/5/6 592/5/6
f 592/5/6 591/5/6 593/5/6
f 594/5/6 595/5/6 598/5/6
f 598/5/6 595/5/6 599/5/6
f 596/5/6 597/5/6 600/5/6
f 600/5/6 597/5/6 601/5/6
f 602/5/6 603/5/6 604/5/6
f 604/5/6 603/5/6 605/5/6
f 606/5/6 607/5/6 608/5/6
f 608/5/6 607/5/6 609/5/6
f 610/2/6 611/2/6 612/2/6
f 612/2/6 611/2/6 613/2/6
f 614/5/6 615/5/6 616/5/6
f 616/5/6 615/5/6 617/5/6
f 618/5/6 619/5/6 620/5/6
f 620/5/6 619/5/6 621/5/6
