# MagicaVoxel @ Ephtracy

# group
o 

# material
mtllib seaweed.mtl
usemtl palette

# normals
vn -1 0 0
vn 1 0 0
vn 0 0 1
vn 0 0 -1
vn 0 -1 0
vn 0 1 0

# texcoords
vt 0.576172 0.5
vt 0.583984 0.5

# verts
v -0.9 0.2 0
v -0.9 0.2 -0.1
v -0.9 1.2 0
v -0.9 1.2 -0.1
v -0.8 0.1 0
v -0.8 0.1 -0.1
v -0.8 0.2 0
v -0.8 0.2 -0.1
v -0.7 0 0
v -0.7 0 -0.1
v -0.7 0.1 0
v -0.7 0.1 -0.1
v -0.7 0.4 0
v -0.7 0.4 -0.1
v -0.7 0.5 0
v -0.7 0.5 -0.1
v -0.6 0.3 0
v -0.6 0.3 -0.1
v -0.6 0.4 0
v -0.6 0.4 -0.1
v -0.6 0.6 0
v -0.6 0.6 -0.1
v -0.6 0.8 0
v -0.6 0.8 -0.1
v -0.6 0.9 0
v -0.6 0.9 -0.1
v -0.6 1.1 0
v -0.6 1.1 -0.1
v -0.5 0.2 0
v -0.5 0.2 -0.1
v -0.5 0.3 0
v -0.5 0.3 -0.1
v -0.4 0 0.3
v -0.4 0 0
v -0.4 0 -0.1
v -0.4 0 -0.4
v -0.4 0.1 0.4
v -0.4 0.1 0.3
v -0.4 0.1 -0.4
v -0.4 0.1 -0.5
v -0.4 0.2 0.5
v -0.4 0.2 0.4
v -0.4 0.2 0.3
v -0.4 0.2 0.1
v -0.4 0.2 0
v -0.4 0.2 -0.1
v -0.4 0.2 -0.4
v -0.4 0.2 -0.5
v -0.4 0.2 -0.6
v -0.4 0.3 0.2
v -0.4 0.3 0.1
v -0.4 0.3 -0.1
v -0.4 0.3 -0.2
v -0.4 0.3 -0.3
v -0.4 0.3 -0.4
v -0.4 0.3 -0.5
v -0.4 0.4 0.3
v -0.4 0.4 0.2
v -0.4 0.4 0.1
v -0.4 0.4 0
v -0.4 0.4 -0.1
v -0.4 0.5 0.4
v -0.4 0.5 0.3
v -0.4 0.5 0
v -0.4 0.5 -0.1
v -0.4 0.5 -0.2
v -0.4 0.5 -0.3
v -0.4 0.6 0
v -0.4 0.6 -0.1
v -0.4 0.6 -0.2
v -0.4 0.6 -0.3
v -0.4 0.7 0.2
v -0.4 0.7 0.1
v -0.4 0.7 -0.1
v -0.4 0.7 -0.4
v -0.4 0.7 -0.5
v -0.4 0.8 0.4
v -0.4 0.8 0.3
v -0.4 0.8 -0.1
v -0.4 0.8 -0.2
v -0.4 0.8 -0.3
v -0.4 0.8 -0.4
v -0.4 0.8 -0.5
v -0.4 0.9 0.4
v -0.4 0.9 0.3
v -0.4 0.9 0.2
v -0.4 0.9 0.1
v -0.4 0.9 -0.2
v -0.4 0.9 -0.3
v -0.4 0.9 -0.5
v -0.4 0.9 -0.6
v -0.4 1 0.5
v -0.4 1 0.4
v -0.4 1.1 0.3
v -0.4 1.1 0.2
v -0.4 1.1 -0.3
v -0.4 1.1 -0.4
v -0.3 0.7 0
v -0.3 0.7 -0.1
v -0.3 0.8 -0.1
v -0.3 1.2 0
v -0.3 1.2 -0.1
v -0.1 0.3 0
v -0.1 0.3 -0.1
v -0.1 0.6 0
v -0.1 0.6 -0.1
v 0 0.2 0
v 0 0.2 -0.1
v 0 0.3 0
v 0 0.3 -0.1
v 0 0.7 0
v 0 0.7 -0.1
v 0 1.1 0
v 0 1.1 -0.1
v 0.1 0.4 0
v 0.1 0.4 -0.1
v 0.1 0.6 0
v 0.1 0.6 -0.1
v -0.8 0.3 0
v -0.8 0.3 -0.1
v -0.8 0.5 0
v -0.8 0.5 -0.1
v -0.8 0.7 0
v -0.8 0.7 -0.1
v -0.8 0.8 0
v -0.8 0.8 -0.1
v -0.8 0.9 0
v -0.8 0.9 -0.1
v -0.8 1.2 0
v -0.8 1.2 -0.1
v -0.7 0.2 0
v -0.7 0.2 -0.1
v -0.7 0.3 0
v -0.7 0.3 -0.1
v -0.7 0.6 0
v -0.7 0.6 -0.1
v -0.7 0.7 0
v -0.7 0.7 -0.1
v -0.5 0.4 0
v -0.5 0.4 -0.1
v -0.5 0.5 0
v -0.5 0.5 -0.1
v -0.5 0.6 0
v -0.5 0.6 -0.1
v -0.5 1.1 0
v -0.5 1.1 -0.1
v -0.3 0 0.3
v -0.3 0 0
v -0.3 0 -0.1
v -0.3 0 -0.4
v -0.3 0.1 0.4
v -0.3 0.1 0.3
v -0.3 0.1 -0.4
v -0.3 0.1 -0.5
v -0.3 0.2 0.5
v -0.3 0.2 0.4
v -0.3 0.2 0.3
v -0.3 0.2 0.1
v -0.3 0.2 0
v -0.3 0.2 -0.1
v -0.3 0.2 -0.4
v -0.3 0.2 -0.5
v -0.3 0.2 -0.6
v -0.3 0.3 0.2
v -0.3 0.3 0.1
v -0.3 0.3 -0.1
v -0.3 0.3 -0.2
v -0.3 0.3 -0.3
v -0.3 0.3 -0.4
v -0.3 0.3 -0.5
v -0.3 0.4 0.3
v -0.3 0.4 0.2
v -0.3 0.4 0.1
v -0.3 0.5 0.4
v -0.3 0.5 0.3
v -0.3 0.5 -0.2
v -0.3 0.5 -0.3
v -0.3 0.6 -0.2
v -0.3 0.6 -0.3
v -0.3 0.7 0.2
v -0.3 0.7 0.1
v -0.3 0.7 0
v -0.3 0.7 -0.4
v -0.3 0.7 -0.5
v -0.3 0.8 0.4
v -0.3 0.8 0.3
v -0.3 0.8 -0.1
v -0.3 0.8 -0.2
v -0.3 0.8 -0.3
v -0.3 0.8 -0.4
v -0.3 0.8 -0.5
v -0.3 0.9 0.4
v -0.3 0.9 0.3
v -0.3 0.9 0.2
v -0.3 0.9 0.1
v -0.3 0.9 -0.2
v -0.3 0.9 -0.3
v -0.3 0.9 -0.5
v -0.3 0.9 -0.6
v -0.3 1 0.5
v -0.3 1 0.4
v -0.3 1.1 0.3
v -0.3 1.1 0.2
v -0.3 1.1 -0.3
v -0.3 1.1 -0.4
v -0.2 0.2 0
v -0.2 0.2 -0.1
v -0.2 0.6 0
v -0.2 0.6 -0.1
v -0.2 0.8 0
v -0.2 0.8 -0.1
v -0.2 1.2 0
v -0.2 1.2 -0.1
v -0.1 0.7 0
v -0.1 0.7 -0.1
v -0.1 0.8 0
v -0.1 0.8 -0.1
v 0 0 0
v 0 0 -0.1
v 0 0.1 0
v 0 0.1 -0.1
v 0 0.4 0
v 0 0.4 -0.1
v 0 0.6 0
v 0 0.6 -0.1
v 0.1 0.1 0
v 0.1 0.1 -0.1
v 0.1 0.2 0
v 0.1 0.2 -0.1
v 0.1 0.9 0
v 0.1 0.9 -0.1
v 0.1 1.1 0
v 0.1 1.1 -0.1
v 0.2 0.2 0
v 0.2 0.2 -0.1
v 0.2 0.9 0
v 0.2 0.9 -0.1
v -0.4 0.2 0.5
v -0.4 1 0.5
v -0.3 0.2 0.5
v -0.3 1 0.5
v -0.4 0.1 0.4
v -0.4 0.2 0.4
v -0.3 0.1 0.4
v -0.3 0.2 0.4
v -0.4 0 0.3
v -0.4 0.1 0.3
v -0.4 0.5 0.3
v -0.4 0.8 0.3
v -0.4 0.9 0.3
v -0.4 1.1 0.3
v -0.3 0 0.3
v -0.3 0.1 0.3
v -0.3 0.5 0.3
v -0.3 0.8 0.3
v -0.3 0.9 0.3
v -0.3 1.1 0.3
v -0.4 0.3 0.2
v -0.4 0.4 0.2
v -0.3 0.3 0.2
v -0.3 0.4 0.2
v -0.4 0.2 0.1
v -0.4 0.3 0.1
v -0.4 0.4 0.1
v -0.4 0.7 0.1
v -0.3 0.2 0.1
v -0.3 0.3 0.1
v -0.3 0.4 0.1
v -0.3 0.7 0.1
v -0.9 0.2 0
v -0.9 1.2 0
v -0.8 0.1 0
v -0.8 0.2 0
v -0.8 0.3 0
v -0.8 0.5 0
v -0.8 0.7 0
v -0.8 0.8 0
v -0.8 0.9 0
v -0.8 1.2 0
v -0.7 0 0
v -0.7 0.1 0
v -0.7 0.2 0
v -0.7 0.3 0
v -0.7 0.4 0
v -0.7 0.5 0
v -0.7 0.6 0
v -0.7 0.7 0
v -0.6 0.3 0
v -0.6 0.4 0
v -0.6 0.6 0
v -0.6 0.8 0
v -0.6 0.9 0
v -0.6 1.1 0
v -0.5 0.2 0
v -0.5 0.3 0
v -0.5 0.4 0
v -0.5 0.5 0
v -0.5 0.6 0
v -0.5 1.1 0
v -0.4 0 0
v -0.4 0.2 0
v -0.4 0.4 0
v -0.4 0.5 0
v -0.4 0.6 0
v -0.3 0 0
v -0.3 0.2 0
v -0.3 0.7 0
v -0.3 1.2 0
v -0.2 0.2 0
v -0.2 0.6 0
v -0.2 0.8 0
v -0.2 1.2 0
v -0.1 0.3 0
v -0.1 0.6 0
v -0.1 0.7 0
v -0.1 0.8 0
v 0 0 0
v 0 0.1 0
v 0 0.2 0
v 0 0.3 0
v 0 0.4 0
v 0 0.6 0
v 0 0.7 0
v 0 1.1 0
v 0.1 0.1 0
v 0.1 0.2 0
v 0.1 0.4 0
v 0.1 0.6 0
v 0.1 0.9 0
v 0.1 1.1 0
v 0.2 0.2 0
v 0.2 0.9 0
v -0.4 0.7 -0.1
v -0.4 0.8 -0.1
v -0.3 0.7 -0.1
v -0.3 0.8 -0.1
v -0.4 0.8 -0.2
v -0.4 0.9 -0.2
v -0.3 0.8 -0.2
v -0.3 0.9 -0.2
v -0.4 0.3 -0.3
v -0.4 0.5 -0.3
v -0.4 0.6 -0.3
v -0.4 0.8 -0.3
v -0.4 0.9 -0.3
v -0.4 1.1 -0.3
v -0.3 0.3 -0.3
v -0.3 0.5 -0.3
v -0.3 0.6 -0.3
v -0.3 0.8 -0.3
v -0.3 0.9 -0.3
v -0.3 1.1 -0.3
v -0.4 0.2 -0.4
v -0.4 0.3 -0.4
v -0.3 0.2 -0.4
v -0.3 0.3 -0.4
v -0.4 0.3 -0.5
v -0.4 0.7 -0.5
v -0.4 0.8 -0.5
v -0.4 0.9 -0.5
v -0.3 0.3 -0.5
v -0.3 0.7 -0.5
v -0.3 0.8 -0.5
v -0.3 0.9 -0.5
v -0.4 0.5 0.4
v -0.4 0.8 0.4
v -0.4 0.9 0.4
v -0.4 1 0.4
v -0.3 0.5 0.4
v -0.3 0.8 0.4
v -0.3 0.9 0.4
v -0.3 1 0.4
v -0.4 0.2 0.3
v -0.4 0.4 0.3
v -0.3 0.2 0.3
v -0.3 0.4 0.3
v -0.4 0.4 0.2
v -0.4 0.7 0.2
v -0.4 0.9 0.2
v -0.4 1.1 0.2
v -0.3 0.4 0.2
v -0.3 0.7 0.2
v -0.3 0.9 0.2
v -0.3 1.1 0.2
v -0.4 0.7 0.1
v -0.4 0.9 0.1
v -0.3 0.7 0.1
v -0.3 0.9 0.1
v -0.9 0.2 -0.1
v -0.9 1.2 -0.1
v -0.8 0.1 -0.1
v -0.8 0.2 -0.1
v -0.8 0.3 -0.1
v -0.8 0.5 -0.1
v -0.8 0.7 -0.1
v -0.8 0.8 -0.1
v -0.8 0.9 -0.1
v -0.8 1.2 -0.1
v -0.7 0 -0.1
v -0.7 0.1 -0.1
v -0.7 0.2 -0.1
v -0.7 0.3 -0.1
v -0.7 0.4 -0.1
v -0.7 0.5 -0.1
v -0.7 0.6 -0.1
v -0.7 0.7 -0.1
v -0.6 0.3 -0.1
v -0.6 0.4 -0.1
v -0.6 0.6 -0.1
v -0.6 0.8 -0.1
v -0.6 0.9 -0.1
v -0.6 1.1 -0.1
v -0.5 0.2 -0.1
v -0.5 0.3 -0.1
v -0.5 0.4 -0.1
v -0.5 0.5 -0.1
v -0.5 0.6 -0.1
v -0.5 1.1 -0.1
v -0.4 0 -0.1
v -0.4 0.2 -0.1
v -0.4 0.3 -0.1
v -0.4 0.4 -0.1
v -0.4 0.5 -0.1
v -0.4 0.6 -0.1
v -0.3 0 -0.1
v -0.3 0.2 -0.1
v -0.3 0.3 -0.1
v -0.3 0.8 -0.1
v -0.3 1.2 -0.1
v -0.2 0.2 -0.1
v -0.2 0.6 -0.1
v -0.2 0.8 -0.1
v -0.2 1.2 -0.1
v -0.1 0.3 -0.1
v -0.1 0.6 -0.1
v -0.1 0.7 -0.1
v -0.1 0.8 -0.1
v 0 0 -0.1
v 0 0.1 -0.1
v 0 0.2 -0.1
v 0 0.3 -0.1
v 0 0.4 -0.1
v 0 0.6 -0.1
v 0 0.7 -0.1
v 0 1.1 -0.1
v 0.1 0.1 -0.1
v 0.1 0.2 -0.1
v 0.1 0.4 -0.1
v 0.1 0.6 -0.1
v 0.1 0.9 -0.1
v 0.1 1.1 -0.1
v 0.2 0.2 -0.1
v 0.2 0.9 -0.1
v -0.4 0.3 -0.2
v -0.4 0.5 -0.2
v -0.4 0.6 -0.2
v -0.4 0.8 -0.2
v -0.3 0.3 -0.2
v -0.3 0.5 -0.2
v -0.3 0.6 -0.2
v -0.3 0.8 -0.2
v -0.4 0 -0.4
v -0.4 0.1 -0.4
v -0.4 0.3 -0.4
v -0.4 0.7 -0.4
v -0.4 0.8 -0.4
v -0.4 1.1 -0.4
v -0.3 0 -0.4
v -0.3 0.1 -0.4
v -0.3 0.3 -0.4
v -0.3 0.7 -0.4
v -0.3 0.8 -0.4
v -0.3 1.1 -0.4
v -0.4 0.1 -0.5
v -0.4 0.2 -0.5
v -0.3 0.1 -0.5
v -0.3 0.2 -0.5
v -0.4 0.2 -0.6
v -0.4 0.9 -0.6
v -0.3 0.2 -0.6
v -0.3 0.9 -0.6
v -0.4 0 0.3
v -0.3 0 0.3
v -0.7 0 0
v -0.4 0 0
v -0.3 0 0
v 0 0 0
v -0.7 0 -0.1
v -0.4 0 -0.1
v -0.3 0 -0.1
v 0 0 -0.1
v -0.4 0 -0.4
v -0.3 0 -0.4
v -0.4 0.1 0.4
v -0.3 0.1 0.4
v -0.4 0.1 0.3
v -0.3 0.1 0.3
v -0.8 0.1 0
v -0.7 0.1 0
v 0 0.1 0
v 0.1 0.1 0
v -0.8 0.1 -0.1
v -0.7 0.1 -0.1
v 0 0.1 -0.1
v 0.1 0.1 -0.1
v -0.4 0.1 -0.4
v -0.3 0.1 -0.4
v -0.4 0.1 -0.5
v -0.3 0.1 -0.5
v -0.4 0.2 0.5
v -0.3 0.2 0.5
v -0.4 0.2 0.4
v -0.3 0.2 0.4
v -0.9 0.2 0
v -0.8 0.2 0
v 0.1 0.2 0
v 0.2 0.2 0
v -0.9 0.2 -0.1
v -0.8 0.2 -0.1
v 0.1 0.2 -0.1
v 0.2 0.2 -0.1
v -0.4 0.2 -0.5
v -0.3 0.2 -0.5
v -0.4 0.2 -0.6
v -0.3 0.2 -0.6
v -0.4 0.3 0.2
v -0.3 0.3 0.2
v -0.4 0.3 0.1
v -0.3 0.3 0.1
v -0.6 0.3 0
v -0.5 0.3 0
v -0.1 0.3 0
v 0 0.3 0
v -0.6 0.3 -0.1
v -0.5 0.3 -0.1
v -0.4 0.3 -0.1
v -0.3 0.3 -0.1
v -0.1 0.3 -0.1
v 0 0.3 -0.1
v -0.4 0.3 -0.2
v -0.3 0.3 -0.2
v -0.4 0.3 -0.3
v -0.3 0.3 -0.3
v -0.4 0.3 -0.4
v -0.3 0.3 -0.4
v -0.4 0.4 0.3
v -0.3 0.4 0.3
v -0.4 0.4 0.2
v -0.3 0.4 0.2
v -0.7 0.4 0
v -0.6 0.4 0
v -0.7 0.4 -0.1
v -0.6 0.4 -0.1
v -0.8 0.5 0
v -0.7 0.5 0
v -0.5 0.5 0
v -0.4 0.5 0
v -0.8 0.5 -0.1
v -0.7 0.5 -0.1
v -0.5 0.5 -0.1
v -0.4 0.5 -0.1
v -0.4 0.5 -0.2
v -0.3 0.5 -0.2
v -0.4 0.5 -0.3
v -0.3 0.5 -0.3
v -0.2 0.6 0
v -0.1 0.6 0
v 0 0.6 0
v 0.1 0.6 0
v -0.2 0.6 -0.1
v -0.1 0.6 -0.1
v 0 0.6 -0.1
v 0.1 0.6 -0.1
v -0.4 0.7 0.2
v -0.3 0.7 0.2
v -0.4 0.7 0.1
v -0.3 0.7 0.1
v -0.4 0.7 -0.4
v -0.3 0.7 -0.4
v -0.4 0.7 -0.5
v -0.3 0.7 -0.5
v -0.4 0.8 0.4
v -0.3 0.8 0.4
v -0.4 0.8 0.3
v -0.3 0.8 0.3
v -0.8 0.8 0
v -0.6 0.8 0
v -0.8 0.8 -0.1
v -0.6 0.8 -0.1
v -0.4 0.8 -0.2
v -0.3 0.8 -0.2
v -0.4 0.8 -0.3
v -0.3 0.8 -0.3
v -0.4 0.2 0.3
v -0.3 0.2 0.3
v -0.4 0.2 0.1
v -0.3 0.2 0.1
v -0.7 0.2 0
v -0.5 0.2 0
v -0.2 0.2 0
v 0 0.2 0
v -0.7 0.2 -0.1
v -0.5 0.2 -0.1
v -0.4 0.2 -0.1
v -0.3 0.2 -0.1
v -0.2 0.2 -0.1
v 0 0.2 -0.1
v -0.4 0.2 -0.4
v -0.3 0.2 -0.4
v -0.8 0.3 0
v -0.7 0.3 0
v -0.8 0.3 -0.1
v -0.7 0.3 -0.1
v -0.4 0.3 -0.4
v -0.3 0.3 -0.4
v -0.4 0.3 -0.5
v -0.3 0.3 -0.5
v -0.4 0.4 0.2
v -0.3 0.4 0.2
v -0.4 0.4 0.1
v -0.3 0.4 0.1
v -0.5 0.4 0
v -0.4 0.4 0
v 0 0.4 0
v 0.1 0.4 0
v -0.5 0.4 -0.1
v -0.4 0.4 -0.1
v 0 0.4 -0.1
v 0.1 0.4 -0.1
v -0.4 0.5 0.4
v -0.3 0.5 0.4
v -0.4 0.5 0.3
v -0.3 0.5 0.3
v -0.7 0.6 0
v -0.6 0.6 0
v -0.5 0.6 0
v -0.4 0.6 0
v -0.7 0.6 -0.1
v -0.6 0.6 -0.1
v -0.5 0.6 -0.1
v -0.4 0.6 -0.1
v -0.4 0.6 -0.2
v -0.3 0.6 -0.2
v -0.4 0.6 -0.3
v -0.3 0.6 -0.3
v -0.4 0.7 0.1
v -0.3 0.7 0.1
v -0.8 0.7 0
v -0.7 0.7 0
v -0.3 0.7 0
v -0.1 0.7 0
v 0 0.7 0
v -0.8 0.7 -0.1
v -0.7 0.7 -0.1
v -0.4 0.7 -0.1
v -0.3 0.7 -0.1
v -0.1 0.7 -0.1
v 0 0.7 -0.1
v -0.2 0.8 0
v -0.1 0.8 0
v -0.4 0.8 -0.1
v -0.3 0.8 -0.1
v -0.2 0.8 -0.1
v -0.1 0.8 -0.1
v -0.4 0.8 -0.2
v -0.3 0.8 -0.2
v -0.4 0.8 -0.4
v -0.3 0.8 -0.4
v -0.4 0.8 -0.5
v -0.3 0.8 -0.5
v -0.4 0.9 0.4
v -0.3 0.9 0.4
v -0.4 0.9 0.3
v -0.3 0.9 0.3
v -0.4 0.9 0.2
v -0.3 0.9 0.2
v -0.4 0.9 0.1
v -0.3 0.9 0.1
v -0.8 0.9 0
v -0.6 0.9 0
v 0.1 0.9 0
v 0.2 0.9 0
v -0.8 0.9 -0.1
v -0.6 0.9 -0.1
v 0.1 0.9 -0.1
v 0.2 0.9 -0.1
v -0.4 0.9 -0.2
v -0.3 0.9 -0.2
v -0.4 0.9 -0.3
v -0.3 0.9 -0.3
v -0.4 0.9 -0.5
v -0.3 0.9 -0.5
v -0.4 0.9 -0.6
v -0.3 0.9 -0.6
v -0.4 1 0.5
v -0.3 1 0.5
v -0.4 1 0.4
v -0.3 1 0.4
v -0.4 1.1 0.3
v -0.3 1.1 0.3
v -0.4 1.1 0.2
v -0.3 1.1 0.2
v -0.6 1.1 0
v -0.5 1.1 0
v 0 1.1 0
v 0.1 1.1 0
v -0.6 1.1 -0.1
v -0.5 1.1 -0.1
v 0 1.1 -0.1
v 0.1 1.1 -0.1
v -0.4 1.1 -0.3
v -0.3 1.1 -0.3
v -0.4 1.1 -0.4
v -0.3 1.1 -0.4
v -0.9 1.2 0
v -0.8 1.2 0
v -0.3 1.2 0
v -0.2 1.2 0
v -0.9 1.2 -0.1
v -0.8 1.2 -0.1
v -0.3 1.2 -0.1
v -0.2 1.2 -0.1

# faces
f 3/2/1 2/2/1 1/2/1
f 4/2/1 2/2/1 3/2/1
f 7/1/1 6/1/1 5/1/1
f 8/1/1 6/1/1 7/1/1
f 11/1/1 10/1/1 9/1/1
f 12/1/1 10/1/1 11/1/1
f 15/2/1 14/2/1 13/2/1
f 16/2/1 14/2/1 15/2/1
f 19/2/1 18/2/1 17/2/1
f 20/2/1 18/2/1 19/2/1
f 23/2/1 22/2/1 21/2/1
f 24/2/1 22/2/1 23/2/1
f 27/2/1 26/2/1 25/2/1
f 28/2/1 26/2/1 27/2/1
f 31/2/1 30/2/1 29/2/1
f 32/2/1 30/2/1 31/2/1
f 38/1/1 34/1/1 33/1/1
f 39/1/1 36/1/1 35/1/1
f 42/1/1 38/1/1 37/1/1
f 43/1/1 34/1/1 38/1/1
f 43/1/1 38/1/1 42/1/1
f 44/1/1 34/1/1 43/1/1
f 45/1/1 34/1/1 44/1/1
f 46/1/1 40/1/1 39/1/1
f 46/1/1 39/1/1 35/1/1
f 47/1/1 40/1/1 46/1/1
f 48/1/1 40/1/1 47/1/1
f 51/2/1 45/2/1 44/2/1
f 55/2/1 48/2/1 47/2/1
f 55/2/1 49/2/1 48/2/1
f 56/2/1 49/2/1 55/2/1
f 57/2/1 42/2/1 41/2/1
f 57/2/1 43/2/1 42/2/1
f 58/2/1 51/2/1 50/2/1
f 59/2/1 45/2/1 51/2/1
f 59/2/1 51/2/1 58/2/1
f 60/2/1 45/2/1 59/2/1
f 61/2/1 53/2/1 52/2/1
f 62/2/1 57/2/1 41/2/1
f 62/2/1 58/2/1 57/2/1
f 63/2/1 58/2/1 62/2/1
f 64/2/1 60/2/1 59/2/1
f 64/2/1 61/2/1 60/2/1
f 65/2/1 53/2/1 61/2/1
f 65/2/1 61/2/1 64/2/1
f 66/2/1 53/2/1 65/2/1
f 67/2/1 55/2/1 54/2/1
f 68/2/1 64/2/1 59/2/1
f 69/2/1 67/2/1 66/2/1
f 69/2/1 66/2/1 65/2/1
f 70/2/1 67/2/1 69/2/1
f 71/2/1 55/2/1 67/2/1
f 71/2/1 67/2/1 70/2/1
f 72/2/1 58/2/1 63/2/1
f 73/2/1 68/2/1 59/2/1
f 73/2/1 70/2/1 69/2/1
f 73/2/1 69/2/1 68/2/1
f 74/2/1 70/2/1 73/2/1
f 75/2/1 55/2/1 71/2/1
f 76/2/1 49/2/1 56/2/1
f 77/2/1 62/2/1 41/2/1
f 78/2/1 72/2/1 63/2/1
f 78/2/1 73/2/1 72/2/1
f 79/2/1 70/2/1 74/2/1
f 80/2/1 70/2/1 79/2/1
f 81/2/1 75/2/1 71/2/1
f 81/2/1 76/2/1 75/2/1
f 82/2/1 76/2/1 81/2/1
f 83/2/1 49/2/1 76/2/1
f 83/2/1 76/2/1 82/2/1
f 84/2/1 78/2/1 77/2/1
f 84/2/1 77/2/1 41/2/1
f 85/2/1 73/2/1 78/2/1
f 85/2/1 78/2/1 84/2/1
f 86/2/1 73/2/1 85/2/1
f 87/2/1 73/2/1 86/2/1
f 88/2/1 81/2/1 80/2/1
f 88/2/1 82/2/1 81/2/1
f 89/2/1 82/2/1 88/2/1
f 90/2/1 49/2/1 83/2/1
f 91/2/1 49/2/1 90/2/1
f 92/2/1 84/2/1 41/2/1
f 93/2/1 84/2/1 92/2/1
f 94/2/1 86/2/1 85/2/1
f 95/2/1 86/2/1 94/2/1
f 96/2/1 82/2/1 89/2/1
f 97/2/1 82/2/1 96/2/1
f 100/2/1 99/2/1 98/2/1
f 101/2/1 100/2/1 98/2/1
f 102/2/1 100/2/1 101/2/1
f 105/2/1 104/2/1 103/2/1
f 106/2/1 104/2/1 105/2/1
f 109/2/1 108/2/1 107/2/1
f 110/2/1 108/2/1 109/2/1
f 113/2/1 112/2/1 111/2/1
f 114/2/1 112/2/1 113/2/1
f 117/2/1 116/2/1 115/2/1
f 118/2/1 116/2/1 117/2/1
f 119/2/2 120/2/2 121/2/2
f 121/2/2 120/2/2 122/2/2
f 123/2/2 124/2/2 125/2/2
f 125/2/2 124/2/2 126/2/2
f 127/2/2 128/2/2 129/2/2
f 129/2/2 128/2/2 130/2/2
f 131/2/2 132/2/2 133/2/2
f 133/2/2 132/2/2 134/2/2
f 135/2/2 136/2/2 137/2/2
f 137/2/2 136/2/2 138/2/2
f 139/2/2 140/2/2 141/2/2
f 141/2/2 140/2/2 142/2/2
f 143/2/2 144/2/2 145/2/2
f 145/2/2 144/2/2 146/2/2
f 147/1/2 148/1/2 152/1/2
f 149/1/2 150/1/2 153/1/2
f 151/1/2 152/1/2 156/1/2
f 152/1/2 148/1/2 157/1/2
f 156/1/2 152/1/2 157/1/2
f 157/1/2 148/1/2 158/1/2
f 158/1/2 148/1/2 159/1/2
f 153/1/2 154/1/2 160/1/2
f 149/1/2 153/1/2 160/1/2
f 160/1/2 154/1/2 161/1/2
f 161/1/2 154/1/2 162/1/2
f 158/2/2 159/2/2 165/2/2
f 161/2/2 162/2/2 169/2/2
f 162/2/2 163/2/2 169/2/2
f 169/2/2 163/2/2 170/2/2
f 155/2/2 156/2/2 171/2/2
f 156/2/2 157/2/2 171/2/2
f 164/2/2 165/2/2 172/2/2
f 165/2/2 159/2/2 173/2/2
f 172/2/2 165/2/2 173/2/2
f 155/2/2 171/2/2 174/2/2
f 171/2/2 172/2/2 174/2/2
f 174/2/2 172/2/2 175/2/2
f 166/2/2 167/2/2 176/2/2
f 168/2/2 169/2/2 177/2/2
f 166/2/2 176/2/2 178/2/2
f 176/2/2 177/2/2 178/2/2
f 177/2/2 169/2/2 179/2/2
f 178/2/2 177/2/2 179/2/2
f 175/2/2 172/2/2 180/2/2
f 173/2/2 159/2/2 181/2/2
f 181/2/2 159/2/2 182/2/2
f 179/2/2 169/2/2 183/2/2
f 170/2/2 163/2/2 184/2/2
f 155/2/2 174/2/2 185/2/2
f 175/2/2 180/2/2 186/2/2
f 180/2/2 181/2/2 186/2/2
f 166/2/2 178/2/2 187/2/2
f 187/2/2 178/2/2 188/2/2
f 183/2/2 184/2/2 189/2/2
f 179/2/2 183/2/2 189/2/2
f 189/2/2 184/2/2 190/2/2
f 184/2/2 163/2/2 191/2/2
f 190/2/2 184/2/2 191/2/2
f 155/2/2 185/2/2 192/2/2
f 185/2/2 186/2/2 192/2/2
f 186/2/2 181/2/2 193/2/2
f 192/2/2 186/2/2 193/2/2
f 193/2/2 181/2/2 194/2/2
f 194/2/2 181/2/2 195/2/2
f 188/2/2 189/2/2 196/2/2
f 189/2/2 190/2/2 196/2/2
f 196/2/2 190/2/2 197/2/2
f 191/2/2 163/2/2 198/2/2
f 198/2/2 163/2/2 199/2/2
f 155/2/2 192/2/2 200/2/2
f 200/2/2 192/2/2 201/2/2
f 193/2/2 194/2/2 202/2/2
f 202/2/2 194/2/2 203/2/2
f 197/2/2 190/2/2 204/2/2
f 204/2/2 190/2/2 205/2/2
f 206/2/2 207/2/2 208/2/2
f 208/2/2 207/2/2 209/2/2
f 210/2/2 211/2/2 212/2/2
f 212/2/2 211/2/2 213/2/2
f 214/2/2 215/2/2 216/2/2
f 216/2/2 215/2/2 217/2/2
f 218/1/2 219/1/2 220/1/2
f 220/1/2 219/1/2 221/1/2
f 222/2/2 223/2/2 224/2/2
f 224/2/2 223/2/2 225/2/2
f 226/1/2 227/1/2 228/1/2
f 228/1/2 227/1/2 229/1/2
f 230/2/2 231/2/2 232/2/2
f 232/2/2 231/2/2 233/2/2
f 234/2/2 235/2/2 236/2/2
f 236/2/2 235/2/2 237/2/2
f 240/2/3 239/2/3 238/2/3
f 241/2/3 239/2/3 240/2/3
f 244/1/3 243/1/3 242/1/3
f 245/1/3 243/1/3 244/1/3
f 252/1/3 247/1/3 246/1/3
f 253/1/3 247/1/3 252/1/3
f 254/2/3 249/2/3 248/2/3
f 255/2/3 249/2/3 254/2/3
f 256/2/3 251/2/3 250/2/3
f 257/2/3 251/2/3 256/2/3
f 260/2/3 259/2/3 258/2/3
f 261/2/3 259/2/3 260/2/3
f 266/2/3 263/2/3 262/2/3
f 267/2/3 263/2/3 266/2/3
f 268/2/3 265/2/3 264/2/3
f 269/2/3 265/2/3 268/2/3
f 273/2/3 271/2/3 270/2/3
f 274/2/3 271/2/3 273/2/3
f 275/2/3 271/2/3 274/2/3
f 276/2/3 271/2/3 275/2/3
f 277/2/3 271/2/3 276/2/3
f 278/2/3 271/2/3 277/2/3
f 279/2/3 271/2/3 278/2/3
f 281/1/3 273/1/3 272/1/3
f 282/2/3 274/2/3 273/2/3
f 282/1/3 273/1/3 281/1/3
f 283/2/3 274/2/3 282/2/3
f 285/2/3 276/2/3 275/2/3
f 286/2/3 276/2/3 285/2/3
f 287/2/3 276/2/3 286/2/3
f 289/2/3 285/2/3 284/2/3
f 289/2/3 286/2/3 285/2/3
f 290/2/3 286/2/3 289/2/3
f 291/2/3 278/2/3 277/2/3
f 292/2/3 278/2/3 291/2/3
f 294/1/3 281/1/3 280/1/3
f 294/1/3 282/1/3 281/1/3
f 295/2/3 290/2/3 289/2/3
f 295/2/3 293/2/3 292/2/3
f 295/2/3 291/2/3 290/2/3
f 295/2/3 289/2/3 288/2/3
f 295/2/3 292/2/3 291/2/3
f 296/2/3 293/2/3 295/2/3
f 297/2/3 293/2/3 296/2/3
f 298/2/3 293/2/3 297/2/3
f 299/2/3 293/2/3 298/2/3
f 300/1/3 294/1/3 280/1/3
f 301/2/3 295/2/3 294/2/3
f 301/1/3 294/1/3 300/1/3
f 301/2/3 296/2/3 295/2/3
f 302/2/3 296/2/3 301/2/3
f 303/2/3 298/2/3 297/2/3
f 304/2/3 298/2/3 303/2/3
f 309/2/3 307/2/3 306/2/3
f 309/2/3 308/2/3 307/2/3
f 309/1/3 306/1/3 305/1/3
f 310/2/3 308/2/3 309/2/3
f 311/2/3 308/2/3 310/2/3
f 312/2/3 308/2/3 311/2/3
f 314/2/3 311/2/3 310/2/3
f 315/2/3 311/2/3 314/2/3
f 316/2/3 311/2/3 315/2/3
f 317/1/3 309/1/3 305/1/3
f 318/1/3 309/1/3 317/1/3
f 319/1/3 309/1/3 318/1/3
f 320/2/3 314/2/3 313/2/3
f 320/2/3 315/2/3 314/2/3
f 321/2/3 315/2/3 320/2/3
f 322/2/3 315/2/3 321/2/3
f 323/2/3 315/2/3 322/2/3
f 325/1/3 319/1/3 318/1/3
f 326/2/3 321/2/3 320/2/3
f 326/1/3 319/1/3 325/1/3
f 326/2/3 320/2/3 319/2/3
f 327/2/3 321/2/3 326/2/3
f 328/2/3 323/2/3 322/2/3
f 328/2/3 324/2/3 323/2/3
f 329/2/3 324/2/3 328/2/3
f 330/2/3 324/2/3 329/2/3
f 331/2/3 327/2/3 326/2/3
f 331/2/3 329/2/3 328/2/3
f 331/2/3 328/2/3 327/2/3
f 332/2/3 329/2/3 331/2/3
f 335/2/3 334/2/3 333/2/3
f 336/2/3 334/2/3 335/2/3
f 339/2/3 338/2/3 337/2/3
f 340/2/3 338/2/3 339/2/3
f 347/2/3 342/2/3 341/2/3
f 348/2/3 342/2/3 347/2/3
f 349/2/3 344/2/3 343/2/3
f 350/2/3 344/2/3 349/2/3
f 351/2/3 346/2/3 345/2/3
f 352/2/3 346/2/3 351/2/3
f 355/2/3 354/2/3 353/2/3
f 356/2/3 354/2/3 355/2/3
f 361/2/3 358/2/3 357/2/3
f 362/2/3 358/2/3 361/2/3
f 363/2/3 360/2/3 359/2/3
f 364/2/3 360/2/3 363/2/3
f 365/2/4 366/2/4 369/2/4
f 369/2/4 366/2/4 370/2/4
f 367/2/4 368/2/4 371/2/4
f 371/2/4 368/2/4 372/2/4
f 373/2/4 374/2/4 375/2/4
f 375/2/4 374/2/4 376/2/4
f 377/2/4 378/2/4 381/2/4
f 381/2/4 378/2/4 382/2/4
f 379/2/4 380/2/4 383/2/4
f 383/2/4 380/2/4 384/2/4
f 385/2/4 386/2/4 387/2/4
f 387/2/4 386/2/4 388/2/4
f 389/2/4 390/2/4 392/2/4
f 392/2/4 390/2/4 393/2/4
f 393/2/4 390/2/4 394/2/4
f 394/2/4 390/2/4 395/2/4
f 395/2/4 390/2/4 396/2/4
f 396/2/4 390/2/4 397/2/4
f 397/2/4 390/2/4 398/2/4
f 391/1/4 392/1/4 400/1/4
f 392/2/4 393/2/4 401/2/4
f 400/1/4 392/1/4 401/1/4
f 401/2/4 393/2/4 402/2/4
f 394/2/4 395/2/4 404/2/4
f 404/2/4 395/2/4 405/2/4
f 405/2/4 395/2/4 406/2/4
f 403/2/4 404/2/4 408/2/4
f 404/2/4 405/2/4 408/2/4
f 408/2/4 405/2/4 409/2/4
f 396/2/4 397/2/4 410/2/4
f 410/2/4 397/2/4 411/2/4
f 399/1/4 400/1/4 413/1/4
f 400/1/4 401/1/4 413/1/4
f 408/2/4 409/2/4 414/2/4
f 411/2/4 412/2/4 414/2/4
f 409/2/4 410/2/4 414/2/4
f 407/2/4 408/2/4 414/2/4
f 410/2/4 411/2/4 414/2/4
f 414/2/4 412/2/4 415/2/4
f 415/2/4 412/2/4 416/2/4
f 416/2/4 412/2/4 417/2/4
f 417/2/4 412/2/4 418/2/4
f 399/1/4 413/1/4 419/1/4
f 413/2/4 414/2/4 420/2/4
f 419/1/4 413/1/4 420/1/4
f 414/2/4 415/2/4 420/2/4
f 420/2/4 415/2/4 421/2/4
f 421/2/4 415/2/4 422/2/4
f 416/2/4 417/2/4 423/2/4
f 423/2/4 417/2/4 424/2/4
f 420/2/4 421/2/4 426/2/4
f 426/2/4 421/2/4 427/2/4
f 427/2/4 428/2/4 430/2/4
f 428/2/4 429/2/4 430/2/4
f 425/1/4 426/1/4 430/1/4
f 426/2/4 427/2/4 430/2/4
f 430/2/4 429/2/4 431/2/4
f 431/2/4 429/2/4 432/2/4
f 432/2/4 429/2/4 433/2/4
f 431/2/4 432/2/4 435/2/4
f 435/2/4 432/2/4 436/2/4
f 436/2/4 432/2/4 437/2/4
f 425/1/4 430/1/4 438/1/4
f 438/1/4 430/1/4 439/1/4
f 439/1/4 430/1/4 440/1/4
f 434/2/4 435/2/4 441/2/4
f 435/2/4 436/2/4 441/2/4
f 441/2/4 436/2/4 442/2/4
f 442/2/4 436/2/4 443/2/4
f 443/2/4 436/2/4 444/2/4
f 439/1/4 440/1/4 446/1/4
f 441/2/4 442/2/4 447/2/4
f 446/1/4 440/1/4 447/1/4
f 440/2/4 441/2/4 447/2/4
f 447/2/4 442/2/4 448/2/4
f 443/2/4 444/2/4 449/2/4
f 444/2/4 445/2/4 449/2/4
f 449/2/4 445/2/4 450/2/4
f 450/2/4 445/2/4 451/2/4
f 447/2/4 448/2/4 452/2/4
f 449/2/4 450/2/4 452/2/4
f 448/2/4 449/2/4 452/2/4
f 452/2/4 450/2/4 453/2/4
f 454/2/4 455/2/4 458/2/4
f 458/2/4 455/2/4 459/2/4
f 456/2/4 457/2/4 460/2/4
f 460/2/4 457/2/4 461/2/4
f 462/1/4 463/1/4 468/1/4
f 468/1/4 463/1/4 469/1/4
f 464/2/4 465/2/4 470/2/4
f 470/2/4 465/2/4 471/2/4
f 466/2/4 467/2/4 472/2/4
f 472/2/4 467/2/4 473/2/4
f 474/1/4 475/1/4 476/1/4
f 476/1/4 475/1/4 477/1/4
f 478/2/4 479/2/4 480/2/4
f 480/2/4 479/2/4 481/2/4
f 485/1/5 483/1/5 482/1/5
f 486/1/5 483/1/5 485/1/5
f 488/1/5 485/1/5 484/1/5
f 488/1/5 487/1/5 486/1/5
f 488/1/5 486/1/5 485/1/5
f 489/1/5 487/1/5 488/1/5
f 490/1/5 487/1/5 489/1/5
f 491/1/5 487/1/5 490/1/5
f 492/1/5 490/1/5 489/1/5
f 493/1/5 490/1/5 492/1/5
f 496/1/5 495/1/5 494/1/5
f 497/1/5 495/1/5 496/1/5
f 502/1/5 499/1/5 498/1/5
f 503/1/5 499/1/5 502/1/5
f 504/1/5 501/1/5 500/1/5
f 505/1/5 501/1/5 504/1/5
f 508/1/5 507/1/5 506/1/5
f 509/1/5 507/1/5 508/1/5
f 512/2/5 511/2/5 510/2/5
f 513/2/5 511/2/5 512/2/5
f 518/2/5 515/2/5 514/2/5
f 519/2/5 515/2/5 518/2/5
f 520/2/5 517/2/5 516/2/5
f 521/2/5 517/2/5 520/2/5
f 524/2/5 523/2/5 522/2/5
f 525/2/5 523/2/5 524/2/5
f 528/2/5 527/2/5 526/2/5
f 529/2/5 527/2/5 528/2/5
f 534/2/5 531/2/5 530/2/5
f 535/2/5 531/2/5 534/2/5
f 538/2/5 533/2/5 532/2/5
f 539/2/5 533/2/5 538/2/5
f 540/2/5 537/2/5 536/2/5
f 541/2/5 537/2/5 540/2/5
f 544/2/5 543/2/5 542/2/5
f 545/2/5 543/2/5 544/2/5
f 548/2/5 547/2/5 546/2/5
f 549/2/5 547/2/5 548/2/5
f 552/2/5 551/2/5 550/2/5
f 553/2/5 551/2/5 552/2/5
f 558/2/5 555/2/5 554/2/5
f 559/2/5 555/2/5 558/2/5
f 560/2/5 557/2/5 556/2/5
f 561/2/5 557/2/5 560/2/5
f 564/2/5 563/2/5 562/2/5
f 565/2/5 563/2/5 564/2/5
f 570/2/5 567/2/5 566/2/5
f 571/2/5 567/2/5 570/2/5
f 572/2/5 569/2/5 568/2/5
f 573/2/5 569/2/5 572/2/5
f 576/2/5 575/2/5 574/2/5
f 577/2/5 575/2/5 576/2/5
f 580/2/5 579/2/5 578/2/5
f 581/2/5 579/2/5 580/2/5
f 584/2/5 583/2/5 582/2/5
f 585/2/5 583/2/5 584/2/5
f 588/2/5 587/2/5 586/2/5
f 589/2/5 587/2/5 588/2/5
f 592/2/5 591/2/5 590/2/5
f 593/2/5 591/2/5 592/2/5
f 594/1/6 595/1/6 596/1/6
f 596/1/6 595/1/6 597/1/6
f 598/1/6 599/1/6 602/1/6
f 602/1/6 599/1/6 603/1/6
f 600/1/6 601/1/6 606/1/6
f 606/1/6 601/1/6 607/1/6
f 604/1/6 605/1/6 608/1/6
f 608/1/6 605/1/6 609/1/6
f 610/2/6 611/2/6 612/2/6
f 612/2/6 611/2/6 613/2/6
f 614/2/6 615/2/6 616/2/6
f 616/2/6 615/2/6 617/2/6
f 618/2/6 619/2/6 620/2/6
f 620/2/6 619/2/6 621/2/6
f 622/2/6 623/2/6 626/2/6
f 626/2/6 623/2/6 627/2/6
f 624/2/6 625/2/6 628/2/6
f 628/2/6 625/2/6 629/2/6
f 630/2/6 631/2/6 632/2/6
f 632/2/6 631/2/6 633/2/6
f 634/2/6 635/2/6 638/2/6
f 638/2/6 635/2/6 639/2/6
f 636/2/6 637/2/6 640/2/6
f 640/2/6 637/2/6 641/2/6
f 642/2/6 643/2/6 644/2/6
f 644/2/6 643/2/6 645/2/6
f 646/2/6 647/2/6 650/2/6
f 648/2/6 649/2/6 653/2/6
f 653/2/6 649/2/6 654/2/6
f 646/2/6 650/2/6 655/2/6
f 655/2/6 650/2/6 656/2/6
f 651/2/6 652/2/6 657/2/6
f 657/2/6 652/2/6 658/2/6
f 659/2/6 660/2/6 663/2/6
f 663/2/6 660/2/6 664/2/6
f 661/2/6 662/2/6 665/2/6
f 665/2/6 662/2/6 666/2/6
f 667/2/6 668/2/6 669/2/6
f 669/2/6 668/2/6 670/2/6
f 671/2/6 672/2/6 673/2/6
f 673/2/6 672/2/6 674/2/6
f 675/2/6 676/2/6 677/2/6
f 677/2/6 676/2/6 678/2/6
f 679/2/6 680/2/6 683/2/6
f 683/2/6 680/2/6 684/2/6
f 681/2/6 682/2/6 685/2/6
f 685/2/6 682/2/6 686/2/6
f 687/2/6 688/2/6 689/2/6
f 689/2/6 688/2/6 690/2/6
f 691/2/6 692/2/6 693/2/6
f 693/2/6 692/2/6 694/2/6
f 695/2/6 696/2/6 697/2/6
f 697/2/6 696/2/6 698/2/6
f 699/2/6 700/2/6 701/2/6
f 701/2/6 700/2/6 702/2/6
f 703/2/6 704/2/6 707/2/6
f 707/2/6 704/2/6 708/2/6
f 705/2/6 706/2/6 709/2/6
f 709/2/6 706/2/6 710/2/6
f 711/2/6 712/2/6 713/2/6
f 713/2/6 712/2/6 714/2/6
f 715/2/6 716/2/6 719/2/6
f 719/2/6 716/2/6 720/2/6
f 717/2/6 718/2/6 721/2/6
f 721/2/6 718/2/6 722/2/6
